<?xml version="1.0" encoding="utf-8"?>
<!-- Generator: Adobe Illustrator 17.1.0, SVG Export Plug-In . SVG Version: 6.00 Build 0)  -->
<!DOCTYPE svg PUBLIC "-//W3C//DTD SVG 1.1//EN" "http://www.w3.org/Graphics/SVG/1.1/DTD/svg11.dtd">
<svg version="1.1" id="Layer_1" xmlns="http://www.w3.org/2000/svg" xmlns:xlink="http://www.w3.org/1999/xlink" x="0px" y="0px"
	 viewBox="0 138.8 1067 522.3" enable-background="new 0 138.8 1067 522.3" xml:space="preserve">
<g id="Layer_1_copy" display="none">
	<g display="inline">
		<polygon fill="none" points="2592,664.5 2609.5,596.5 2609.5,596.5 		"/>
		<polygon fill="none" points="3486.2,664.5 3508.8,576.7 3508.8,576.7 		"/>
		<polygon fill="none" points="3638.1,664.4 3661.6,573.3 3661.6,573.3 		"/>
		<polygon fill="none" points="-105.7,664.3 -103.5,656.1 -103.5,656.1 		"/>
		<polygon fill="none" points="940.4,664.4 948.5,633 948.5,633 		"/>
		<polygon fill="none" points="2109.1,664.5 2123.9,607.1 2123.9,607.1 		"/>
		<polygon fill="none" points="921.7,633.5 913.7,664.3 914.6,664.3 922.4,633.5 		"/>
		<polygon fill="#DE0611" points="3208,583.1 3187.1,664.3 3279.9,664.3 3301.4,581.2 		"/>
		<polygon fill="#FD5B00" points="3110.4,585.5 3089.9,664.3 3187.1,664.3 3208,583.1 		"/>
		<polygon fill="#98EFE5" points="3000.1,587.8 2980.5,664.3 3089.9,664.3 3110.4,585.5 		"/>
		<polygon fill="#003547" points="3301.4,581.2 3279.9,664.3 3385.1,664.3 3407.1,578.9 		"/>
		<polygon fill="#6E2F43" points="3407.1,578.9 3385.1,664.3 3486.4,664.3 3508.9,576.6 		"/>
		<polygon fill="#F10102" points="3508.9,576.6 3486.4,664.3 3579.8,664.3 3603,574.5 		"/>
		<polygon fill="#FFA800" points="2905,589.9 2885.8,664.3 2980.5,664.3 3000.1,587.8 		"/>
		<polygon fill="#DE0611" points="2682.1,594.7 2664.2,664.3 2702.1,664.3 2720.3,593.9 		"/>
		<polygon fill="#FD5B00" points="2609.6,596.4 2592.1,664.3 2664.2,664.3 2682.1,594.7 		"/>
		<polygon fill="#98EFE5" points="2546.3,597.9 2529,664.3 2592.1,664.3 2609.6,596.4 		"/>
		<polygon fill="#003547" points="2720.3,593.9 2702.1,664.3 2768.8,664.3 2787.3,592.4 		"/>
		<polygon fill="#6E2F43" points="2787.3,592.4 2768.8,664.3 2828.4,664.3 2847.2,591.2 		"/>
		<polygon fill="#F10102" points="2847.2,591.2 2828.4,664.3 2885.8,664.3 2905,589.9 		"/>
		<polygon fill="#FFA800" points="2496.5,599 2479.7,664.3 2529,664.3 2546.3,597.9 		"/>
		<polygon fill="#DE0611" points="2278.9,603.6 2263.3,664.3 2315.2,664.3 2331.2,602.5 		"/>
		<polygon fill="#FD5B00" points="2236.3,604.7 2220.9,664.3 2263.3,664.3 2278.9,603.6 		"/>
		<polygon fill="#98EFE5" points="2175.6,605.9 2160.6,664.3 2220.9,664.3 2236.3,604.7 		"/>
		<polygon fill="#003547" points="2331.2,602.5 2315.2,664.3 2361.4,664.3 2377.6,601.5 		"/>
		<polygon fill="#6E2F43" points="2377.6,601.5 2361.4,664.3 2415.1,664.3 2431.6,600.4 		"/>
		<polygon fill="#F10102" points="2431.6,600.4 2415.1,664.3 2479.7,664.3 2496.5,599 		"/>
		<polygon fill="#FFA800" points="2124.1,607.2 2109.4,664.3 2160.6,664.3 2175.6,605.9 		"/>
		<polygon fill="#003547" points="2012.4,609.5 1998.2,664.3 2019.3,664.3 2033.7,609.1 		"/>
		<polygon fill="#6E2F43" points="2033.7,609.1 2019.3,664.3 2066.3,664.3 2080.9,608 		"/>
		<polygon fill="#F10102" points="2080.9,608 2066.3,664.3 2109.4,664.3 2124.1,607.2 		"/>
		<polygon fill="#DE0611" points="4526.8,554.3 4498.6,664.3 4532.1,664.3 4560.8,553.4 		"/>
		<polygon fill="#FD5B00" points="4464,555.5 4435.9,664.3 4498.6,664.3 4526.8,554.3 		"/>
		<polygon fill="#98EFE5" points="4420.3,556.6 4392.5,664.3 4435.9,664.3 4464,555.5 		"/>
		<polygon fill="#003547" points="4618.8,552.1 4560.8,553.4 4532.1,664.3 4589.2,664.3 		"/>
		<polygon fill="#6E2F43" points="4632.7,664.3 4635,551.7 4618.8,552.1 4589.2,664.3 		"/>
		<polygon fill="#FFA800" points="4367.2,557.6 4339.6,664.3 4392.5,664.3 4420.3,556.6 		"/>
		<polygon fill="#DE0611" points="4197.6,561.4 4171.1,664.3 4203.5,664.3 4230.3,560.8 		"/>
		<polygon fill="#FD5B00" points="4155.3,562.3 4128.9,664.3 4171.1,664.3 4197.6,561.4 		"/>
		<polygon fill="#98EFE5" points="4103.8,563.5 4077.9,664.3 4128.9,664.3 4155.3,562.3 		"/>
		<polygon fill="#003547" points="4230.3,560.8 4203.5,664.3 4249.9,664.3 4276.9,559.7 		"/>
		<polygon fill="#6E2F43" points="4276.9,559.7 4249.9,664.3 4283,664.3 4310.2,558.9 		"/>
		<polygon fill="#F10102" points="4310.2,558.9 4283,664.3 4339.6,664.3 4367.2,557.6 		"/>
		<polygon fill="#FFA800" points="4067.5,564.4 4041.8,664.3 4077.9,664.3 4103.8,563.5 		"/>
		<polygon fill="#DE0611" points="3903.5,568 3878.6,664.3 3905.4,664.3 3930.5,567.3 		"/>
		<polygon fill="#FD5B00" points="3863.4,568.8 3838.7,664.3 3878.6,664.3 3903.5,568 		"/>
		<polygon fill="#98EFE5" points="3816.6,569.9 3792.1,664.3 3838.7,664.3 3863.4,568.8 		"/>
		<polygon fill="#003547" points="3930.5,567.3 3905.4,664.3 3947.8,664.3 3973.1,566.5 		"/>
		<polygon fill="#6E2F43" points="3973.1,566.5 3947.8,664.3 3991.2,664.3 4016.7,565.4 		"/>
		<polygon fill="#F10102" points="4016.7,565.4 3991.2,664.3 4041.8,664.3 4067.5,564.4 		"/>
		<polygon fill="#FFA800" points="3797,570.3 3772.7,664.3 3792.1,664.3 3816.6,569.9 		"/>
		<polygon fill="#DE0611" points="3689.4,572.6 3665.6,664.3 3685,664.3 3708.6,572.2 		"/>
		<polygon fill="#FD5B00" points="3661.8,573.2 3638.2,664.3 3665.6,664.3 3689.4,572.6 		"/>
		<polygon fill="#98EFE5" points="3634.8,573.9 3611.6,664.3 3638.2,664.3 3661.8,573.2 		"/>
		<polygon fill="#003547" points="3708.6,572.2 3685,664.3 3712.4,664.3 3736.5,571.5 		"/>
		<polygon fill="#6E2F43" points="3736.5,571.5 3712.4,664.3 3746.8,664.3 3770.8,570.9 		"/>
		<polygon fill="#F10102" points="3770.8,570.9 3746.8,664.3 3772.7,664.3 3797,570.3 		"/>
		<polygon fill="#FFA800" points="3603,574.5 3579.8,664.3 3611.6,664.3 3634.8,573.9 		"/>
		<polygon fill="#DE0611" points="494.9,643 489.4,664.3 586.4,664.3 592.3,640.9 		"/>
		<polygon fill="#FD5B00" points="397.1,645.1 392.2,664.3 489.4,664.3 494.9,643 		"/>
		<polygon fill="#98EFE5" points="287,647.5 282.6,664.3 392.2,664.3 397.1,645.1 		"/>
		<polygon fill="#003547" points="592.3,640.9 586.4,664.3 687.2,664.3 694,638.6 		"/>
		<polygon fill="#6E2F43" points="694,638.6 687.2,664.3 781.5,664.3 788.7,636.5 		"/>
		<polygon fill="#F10102" points="788.7,636.5 781.5,664.3 882.1,664.3 889.9,634.4 		"/>
		<polygon fill="#FFA800" points="191.9,649.6 188.1,664.3 282.6,664.3 287,647.5 		"/>
		<polygon fill="#DE0611" points="-31,654.6 -33.5,664.3 -5.9,664.3 -3.2,654 		"/>
		<polygon fill="#FD5B00" points="-103.5,656.1 -105.6,664.3 -33.5,664.3 -31,654.6 		"/>
		<polygon fill="#98EFE5" points="-167,657.6 -168.7,664.3 -105.6,664.3 -103.5,656.1 		"/>
		<polygon fill="#003547" points="-3.2,654 -5.9,664.3 71.1,664.3 74.2,652.3 		"/>
		<polygon fill="#6E2F43" points="74.2,652.3 71.1,664.3 130.7,664.3 134.1,650.8 		"/>
		<polygon fill="#F10102" points="134.1,650.8 130.7,664.3 188.1,664.3 191.9,649.6 		"/>
		<polygon fill="#FFA800" points="-216.6,658.6 -218,664.3 -168.7,664.3 -167,657.6 		"/>
		<polygon fill="#DE0611" points="-434.2,663.5 -434.4,664.3 -382.5,664.3 -381.9,662.2 		"/>
		<polygon fill="#FD5B00" points="-477,664.3 -477,664.3 -434.4,664.3 -434.4,663.5 		"/>
		<polygon fill="#98EFE5" points="-477.2,664.3 -476.8,664.3 -476.8,664.3 		"/>
		<polygon fill="#003547" points="-381.9,662.2 -382.5,664.3 -336.6,664.3 -335.7,661.4 		"/>
		<polygon fill="#6E2F43" points="-335.7,661.4 -336.6,664.3 -282.8,664.3 -281.5,660.1 		"/>
		<polygon fill="#F10102" points="-281.5,660.1 -282.8,664.3 -218,664.3 -216.6,658.6 		"/>
		<polygon fill="#DE0611" points="1813.7,613.9 1800.6,664.3 1837.3,664.3 1850.6,613.1 		"/>
		<polygon fill="#FD5B00" points="1750.9,615.4 1738.2,664.3 1800.6,664.3 1813.7,613.9 		"/>
		<polygon fill="#98EFE5" points="1707,616.3 1694.6,664.3 1738.2,664.3 1750.9,615.4 		"/>
		<polygon fill="#003547" points="1850.6,613.1 1837.3,664.3 1888.2,664.3 1901.7,612 		"/>
		<polygon fill="#6E2F43" points="1901.7,612 1888.2,664.3 1944.9,664.3 1958.6,610.8 		"/>
		<polygon fill="#F10102" points="1958.6,610.8 1944.9,664.3 1998.2,664.3 2012.4,609.5 		"/>
		<polygon fill="#FFA800" points="1648.4,617.5 1636.4,664.3 1694.6,664.3 1707,616.3 		"/>
		<polygon fill="#DE0611" points="1477.2,621.3 1466.2,664.3 1505.6,664.3 1517,620.5 		"/>
		<polygon fill="#FD5B00" points="1437.5,622.2 1426.6,664.3 1466.2,664.3 1477.2,621.3 		"/>
		<polygon fill="#98EFE5" points="1390.7,623.2 1380.2,664.3 1426.6,664.3 1437.5,622.2 		"/>
		<polygon fill="#003547" points="1517,620.5 1505.6,664.3 1548.2,664.3 1559.8,619.6 		"/>
		<polygon fill="#6E2F43" points="1559.8,619.6 1548.2,664.3 1595,664.3 1606.9,618.6 		"/>
		<polygon fill="#F10102" points="1606.9,618.6 1595,664.3 1603.5,664.3 1615.5,618.4 		"/>
		<polygon fill="#F10102" points="1641.4,617.7 1629.4,664.3 1636.4,664.3 1648.4,617.5 		"/>
		<polygon fill="#FFA800" points="1354.4,624.1 1343.9,664.3 1380.2,664.3 1390.7,623.2 		"/>
		<polygon fill="#DE0611" points="1190.2,627.6 1180.9,664.3 1207.7,664.3 1217.2,627 		"/>
		<polygon fill="#FD5B00" points="1143.1,628.7 1133.9,664.3 1180.9,664.3 1190.2,627.6 		"/>
		<polygon fill="#98EFE5" points="1109.4,629.5 1100.3,664.3 1133.9,664.3 1143.1,628.7 		"/>
		<polygon fill="#003547" points="1217.2,627 1207.7,664.3 1246.7,664.3 1256.6,626.2 		"/>
		<polygon fill="#6E2F43" points="1256.6,626.2 1246.7,664.3 1293.3,664.3 1303.4,625.1 		"/>
		<polygon fill="#F10102" points="1303.4,625.1 1293.3,664.3 1343.9,664.3 1354.4,624.1 		"/>
		<polygon fill="#FFA800" points="1064.7,630.4 1056.1,664.3 1100.3,664.3 1109.4,629.5 		"/>
		<polygon fill="#DE0611" points="976.1,632.5 967.9,664.3 987.1,664.3 995.5,631.9 		"/>
		<polygon fill="#FD5B00" points="948.5,632.9 940.5,664.3 967.9,664.3 976.1,632.5 		"/>
		<polygon fill="#98EFE5" points="922.4,633.5 914.6,664.3 940.5,664.3 948.5,632.9 		"/>
		<polygon fill="#003547" points="995.5,631.9 987.1,664.3 1014.7,664.3 1023.2,631.4 		"/>
		<polygon fill="#6E2F43" points="1023.2,631.4 1014.7,664.3 1056.1,664.3 1064.7,630.4 		"/>
		<polygon fill="#F10102" points="1615.5,618.4 1603.5,664.3 1629.4,664.3 1641.4,617.7 		"/>
		<polygon fill="#FFA800" points="889.9,634.4 882.1,664.3 913.7,664.3 921.7,633.5 		"/>
	</g>
</g>
<g id="Layer_1_copy_2" display="none">
	
		<rect x="126.1" y="-185.9" transform="matrix(-0.9059 -0.4235 0.4235 -0.9059 187.7762 566.1223)" display="inline" fill="#DE0611" width="61.4" height="896.2"/>
	
		<rect x="182.2" y="-160.8" transform="matrix(-0.9059 -0.4235 0.4235 -0.9059 286.6443 638.2178)" display="inline" fill="#FD5B00" width="64.1" height="896.2"/>
	
		<rect x="237.7" y="-133.8" transform="matrix(-0.9059 -0.4235 0.4235 -0.9059 384.3646 713.9993)" display="inline" fill="#98EFE5" width="67.7" height="896.2"/>
	
		<rect x="62.2" y="-215" transform="matrix(-0.9059 -0.4235 0.4235 -0.9059 86.4209 485.4382)" display="inline" fill="#003547" width="69.8" height="896.2"/>
	
		<rect x="11.8" y="-243" transform="matrix(-0.9059 -0.4235 0.4235 -0.9059 -3.3191 409.4013)" display="inline" fill="#6E2F43" width="64.1" height="896.2"/>
	
		<rect x="-44.5" y="-268.2" transform="matrix(-0.9059 -0.4235 0.4235 -0.9059 -102.5139 337.0546)" display="inline" fill="#F10102" width="61.4" height="896.2"/>
	
		<rect x="299.4" y="-103.1" transform="matrix(-0.9059 -0.4235 0.4235 -0.9059 483.0704 797.4119)" display="inline" fill="#FFA800" width="61.4" height="896.2"/>
	
		<rect x="457.5" y="-37.9" transform="matrix(-0.9059 -0.4235 0.4235 -0.9059 732.8653 983.3247)" display="inline" fill="#DE0611" width="36.3" height="896.2"/>
	
		<rect x="483.4" y="-25.7" transform="matrix(-0.9059 -0.4235 0.4235 -0.9059 785.7326 1019.4617)" display="inline" fill="#FD5B00" width="45.5" height="896.2"/>
	
		<rect x="527.4" y="-6.8" transform="matrix(-0.9059 -0.4235 0.4235 -0.9059 852.8475 1072.0237)" display="inline" fill="#98EFE5" width="36.3" height="896.2"/>
	
		<rect x="422.1" y="-55" transform="matrix(-0.9059 -0.4235 0.4235 -0.9059 675.0125 936.2938)" display="inline" fill="#003547" width="38.8" height="896.2"/>
	
		<rect x="387.2" y="-74.2" transform="matrix(-0.9059 -0.4235 0.4235 -0.9059 618.7817 885.3271)" display="inline" fill="#6E2F43" width="41.1" height="896.2"/>
	
		<rect x="357" y="-87.5" transform="matrix(-0.9059 -0.4235 0.4235 -0.9059 562.1893 846.222)" display="inline" fill="#F10102" width="36.3" height="896.2"/>
	
		<rect x="559.9" y="11.7" transform="matrix(-0.9059 -0.4235 0.4235 -0.9059 906.8978 1121.0591)" display="inline" fill="#FFA800" width="36.3" height="896.2"/>
	
		<rect x="722.2" y="-15.7" transform="matrix(-0.9059 -0.4235 0.4235 -0.9059 1223.1252 1136.661)" display="inline" fill="#DE0611" width="31.2" height="896.2"/>
	
		<rect x="752.4" y="-3.4" transform="matrix(-0.9059 -0.4235 0.4235 -0.9059 1275.4243 1172.7491)" display="inline" fill="#FD5B00" width="31.2" height="896.2"/>
	
		<rect x="782.1" y="10.9" transform="matrix(-0.9059 -0.4235 0.4235 -0.9059 1325.9708 1212.6201)" display="inline" fill="#98EFE5" width="31.2" height="896.2"/>
	
		<rect x="693.9" y="-29.9" transform="matrix(-0.9059 -0.4235 0.4235 -0.9059 1175.1986 1097.6295)" display="inline" fill="#003547" width="31.2" height="896.2"/>
	
		<rect x="666.4" y="-46.2" transform="matrix(-0.9059 -0.4235 0.4235 -0.9059 1129.6016 1054.74)" display="inline" fill="#6E2F43" width="31.2" height="896.2"/>
	
		<rect x="633.3" y="-59.2" transform="matrix(-0.9059 -0.4235 0.4235 -0.9059 1074.387 1016.5491)" display="inline" fill="#F10102" width="33.7" height="896.2"/>
	
		<rect x="809.8" y="27.1" transform="matrix(-0.9059 -0.4235 0.4235 -0.9059 1371.8192 1255.1837)" display="inline" fill="#FFA800" width="31.2" height="896.2"/>
	
		<rect x="914.5" y="69" transform="matrix(-0.9059 -0.4235 0.4235 -0.9059 1548.8682 1378.4395)" display="inline" fill="#DE0611" width="26.1" height="896.2"/>
	
		<rect x="940" y="79" transform="matrix(-0.9059 -0.4235 0.4235 -0.9059 1593.3198 1408.2825)" display="inline" fill="#FD5B00" width="26.1" height="896.2"/>
	
		<rect x="964.9" y="91" transform="matrix(-0.9059 -0.4235 0.4235 -0.9059 1635.6401 1441.7019)" display="inline" fill="#98EFE5" width="26.1" height="896.2"/>
	
		<rect x="891.2" y="56.9" transform="matrix(-0.9059 -0.4235 0.4235 -0.9059 1509.5144 1345.3374)" display="inline" fill="#003547" width="26.1" height="896.2"/>
	
		<rect x="868.1" y="42.9" transform="matrix(-0.9059 -0.4235 0.4235 -0.9059 1471.4637 1309.0603)" display="inline" fill="#6E2F43" width="26.1" height="896.2"/>
	
		<rect x="842.6" y="32.8" transform="matrix(-0.9059 -0.4235 0.4235 -0.9059 1427.2631 1278.8909)" display="inline" fill="#F10102" width="26.1" height="896.2"/>
	
		<rect x="987.9" y="105.1" transform="matrix(-0.9059 -0.4235 0.4235 -0.9059 1673.4396 1478.3058)" display="inline" fill="#FFA800" width="26.1" height="896.2"/>
	
		<rect x="1085.9" y="142.7" transform="matrix(-0.9059 -0.4235 0.4235 -0.9059 1842.5913 1590.9708)" display="inline" fill="#DE0611" width="24.3" height="896.2"/>
	
		<rect x="1109.6" y="151.7" transform="matrix(-0.9059 -0.4235 0.4235 -0.9059 1883.8856 1618.2736)" display="inline" fill="#FD5B00" width="24.3" height="896.2"/>
	
		<rect x="1132.8" y="162.9" transform="matrix(-0.9059 -0.4235 0.4235 -0.9059 1923.3549 1649.4198)" display="inline" fill="#98EFE5" width="24.3" height="896.2"/>
	
		<rect x="1064" y="131.2" transform="matrix(-0.9059 -0.4235 0.4235 -0.9059 1805.7059 1559.9377)" display="inline" fill="#003547" width="24.3" height="896.2"/>
	
		<rect x="1042.7" y="118" transform="matrix(-0.9059 -0.4235 0.4235 -0.9059 1770.7203 1525.6379)" display="inline" fill="#6E2F43" width="24.3" height="896.2"/>
	
		<rect x="1012.4" y="107.5" transform="matrix(-0.9059 -0.4235 0.4235 -0.9059 1724.7433 1494.3638)" display="inline" fill="#F10102" width="32.1" height="896.2"/>
	
		<rect x="1154.1" y="176.2" transform="matrix(-0.9059 -0.4235 0.4235 -0.9059 1958.3403 1683.7191)" display="inline" fill="#FFA800" width="24.3" height="896.2"/>
	
		<rect x="1219.6" y="183.5" transform="matrix(-0.9059 -0.4235 0.4235 -0.9059 2072.6882 1723.8126)" display="inline" fill="#DE0611" width="16.4" height="896.2"/>
	
		<rect x="1235.9" y="189.2" transform="matrix(-0.9059 -0.4235 0.4235 -0.9059 2101.2444 1741.5669)" display="inline" fill="#FD5B00" width="16.4" height="896.2"/>
	
		<rect x="1251.5" y="196.8" transform="matrix(-0.9059 -0.4235 0.4235 -0.9059 2127.8181 1762.6564)" display="inline" fill="#98EFE5" width="16.4" height="896.2"/>
	
		<rect x="1205.1" y="175.5" transform="matrix(-0.9059 -0.4235 0.4235 -0.9059 2048.3821 1702.4604)" display="inline" fill="#003547" width="16.4" height="896.2"/>
	
		<rect x="1191.2" y="165.7" transform="matrix(-0.9059 -0.4235 0.4235 -0.9059 2026.058 1677.7736)" display="inline" fill="#6E2F43" width="16.4" height="896.2"/>
	
		<rect x="1175" y="160" transform="matrix(-0.9059 -0.4235 0.4235 -0.9059 1997.5016 1660.0192)" display="inline" fill="#F10102" width="16.4" height="896.2"/>
	
		<rect x="1265.6" y="206.8" transform="matrix(-0.9059 -0.4235 0.4235 -0.9059 2150.468 1787.5945)" display="inline" fill="#FFA800" width="16.4" height="896.2"/>
	<path display="inline" fill="#D10784" d="M638.7,138.8C285.1,140.7-0.6,259,0,403.3s287.8,259.6,641.3,257.9S1280.6,541,1280,396.7
		S992.2,136.9,638.7,138.8z M639.8,626.8c-328.5,1.7-595.5-97.4-596.1-221.4c-0.6-124,265.3-225.6,593.8-227.3
		c328.5-1.7,595.5,97.4,596.1,221.4C1234.2,523.3,968.3,625.1,639.8,626.8z"/>
</g>
<g id="Layer_1_copy_3">
	<g>
		<path fill="none" d="M1017.6,353.3c-3.3-7.2-7.6-14.3-12.5-21.3l-0.2-0.2c-4.6-6.5-9.8-12.9-15.6-19c-4.9-5.3-10.4-10.5-16.3-15.6
			l-0.2-0.2c-7-6.1-14.4-11.8-22.7-17.5c-5.3-3.8-10.9-7.4-16.7-11c-7.6-4.6-15.5-9.1-23.7-13.5c-6.9-3.6-14.1-7.2-21.4-10.5
			c-5.1-2.3-10.4-4.6-15.8-7c-7.6-3.2-15.5-6.3-23.4-9.3c-6.7-2.5-13.5-4.9-20.4-7.2c-7.9-2.5-15.8-5.1-24.1-7.6l0,0
			c-8.4-2.5-17.1-4.9-25.8-7.2c-9.3-2.3-18.8-4.6-28.7-6.7c-9.5-2.1-19.3-4-29.2-5.7c-8.4-1.5-16.9-3-25.5-4.2c-0.2,0-0.2,0-0.4,0
			c-9-1.3-18.1-2.5-27.2-3.8c-9.8-1.3-19.7-2.3-29.7-3.2c-10-0.8-20-1.7-30.1-2.3c-0.2,0-0.2,0-0.4,0c-10.9-0.6-21.8-1.3-32.9-1.5
			c-12.1-0.4-24.3-0.6-36.6-0.6c-2.3,0-4.6,0-6.9,0c-12,0-23.7,0.4-35.5,0.8c-7.7,0.2-15.5,0.6-23.2,1.1
			c-13.4,0.8-26.4,1.9-39.4,3.2c-12.3,1.3-24.4,2.5-36.4,4.2c-12,1.7-23.9,3.4-35.5,5.5c-20.6,3.6-40.6,7.6-59.9,12.4
			c-25.5,6.1-49.6,13.3-72.1,21.3c-24.6,8.6-47.3,18.3-67.9,28.9l0,0c-31.5,16-57.8,34.2-78.2,54c-30.4,29.3-47.3,62-47.1,96.2
			c0,6.5,0.7,13.1,1.9,19.6c4.2,21.9,15.5,43,32.9,62.4l0,0c11.4,13.1,25.7,25.5,42.2,37.1c15.3,11,32.7,21.1,51.9,30.6
			c14.8,7.2,30.4,13.9,47.1,20.2c9.5,3.6,19.3,7,29.4,10.3c10,3.2,20.4,6.3,31.1,9.3c11.2,3.2,22.9,5.9,34.8,8.6
			c6.9,1.5,13.9,3,20.9,4.4c12.8,2.5,25.8,4.9,39.2,7c11.4,1.7,23.2,3.4,35,4.6c10.5,1.3,21.3,2.3,32.2,3.2c0.2,0,0.2,0,0.4,0
			c10,0.8,20,1.5,30.2,2.1c10,0.6,20.2,0.8,30.6,1.1c9.5,0.2,19,0.2,28.5,0.2c0.2,0,0.2,0,0.4,0c2.8,0,5.6,0.2,8.4,0.2
			c6.3,0,12.7,0,19-0.2c10.7-0.2,21.3-0.6,31.8-1.1c10.7-0.6,21.4-1.3,32-2.1c10-0.8,20-1.7,29.7-3c9.7-1.1,19-2.3,28.5-3.6
			c8.3-1.3,16.5-2.5,24.8-3.8c9.8-1.7,19.5-3.4,29.2-5.3c6.9-1.3,13.5-2.7,20-4.2c9.7-2.1,19-4.4,28.3-7c11.2-3,22.1-6.1,32.7-9.3
			c8.3-2.5,16.3-5.3,24.1-8c12-4.2,23.6-8.6,34.6-13.3c0.2,0,0.2,0,0.4-0.2c9.3-4,18.5-8,27.2-12.4c10.2-5.1,19.9-10.1,29-15.6
			c0.2,0,0.2-0.2,0.4-0.2c10-5.9,19.3-12,27.9-18.3c13.4-9.7,25.3-20,35.3-30.6c25.8-27.4,40.3-57.6,40.1-89.2c0-4-0.4-8-0.7-11.8
			C1026.2,375.9,1022.7,364.3,1017.6,353.3z"/>
		<polygon fill="none" points="180.9,205.8 161.6,255.3 161.6,255.3 		"/>
		<path fill="none" d="M868,565.9L851.7,608c0.2,0,0.2,0,0.4-0.2l16.5-42.2C868.2,565.6,868,565.9,868,565.9z"/>
		<polygon fill="none" points="58.1,521 71.1,487.6 71.1,487.6 		"/>
		<path fill="none" d="M435.1,623l-12.8,32.9c0.2,0,0.2,0,0.4,0l12.8-32.9C435.2,623,435.1,623,435.1,623z"/>
		<path fill="none" d="M924.6,537.8L906.1,585c0.2,0,0.2-0.2,0.4-0.2l18.5-47.2C924.8,537.6,924.6,537.6,924.6,537.8z"/>
		<path fill="none" d="M524.5,626.4l-13.4,34.4c0.2,0,0.2,0,0.4,0l13.4-34.4C524.7,626.4,524.7,626.4,524.5,626.4z"/>
		<path fill="none" d="M972.9,297l14.2-36.7l-0.2-0.2l-14.2,36.7C972.8,297,972.9,297,972.9,297z"/>
		<path fill="none" d="M1004.9,331.8l15.8-40.7l-0.2-0.2l-15.8,40.7C1004.9,331.8,1004.9,331.8,1004.9,331.8z"/>
		<path fill="none" d="M695.2,189.7l14.4-37.1c-0.2,0-0.2,0-0.4,0l-14.4,37.1C695,189.7,695.2,189.7,695.2,189.7z"/>
		<polygon fill="none" points="818.3,177.6 804.4,213.4 804.4,213.4 		"/>
		<path fill="none" d="M1062.2,362.8L999,525.2c0.4-0.2,0.7-0.6,0.9-0.8l62.6-160.7C1062.4,363.4,1062.4,363,1062.2,362.8z"/>
		<path fill="none" d="M607.8,180.2l14.9-38.2c-0.2,0-0.2,0-0.4,0l-14.9,38.2C607.7,180.2,607.7,180.2,607.8,180.2z"/>
		<path fill="#DE0611" d="M38.3,425l-18.6,47.9c9.7,16.9,22.5,32.9,38.5,48.1l13-33.3C53.8,468,42.5,446.9,38.3,425z"/>
		<path fill="#DE0611" d="M161.5,255.2l19.3-49.6c-26.5,11.6-50.6,24.5-72.1,38.4l-25.3,65.2C103.9,289.6,130.3,271.5,161.5,255.2z"
			/>
		<path fill="#FD5B00" d="M229.6,226.3l17.6-45.3c-23.4,7.4-45.5,15.6-66.3,24.7l-19.3,49.6C182.3,244.7,205,235,229.6,226.3z"/>
		<path fill="#FD5B00" d="M71.2,487.6L58,520.9c12.7,12,27.1,23.4,43.2,34.4l12-30.6C96.7,512.9,82.6,500.7,71.2,487.6z"/>
		<path fill="#98EFE5" d="M113.2,524.7l-12,30.6c15.8,10.5,33.2,20.7,52.2,29.9l11.6-29.9C145.9,545.8,128.7,535.5,113.2,524.7z"/>
		<path fill="#98EFE5" d="M301.6,205l16.7-43c-24.8,5.5-48.5,11.8-71.2,19l-17.6,45.3C252.1,218.3,276.2,211.2,301.6,205z"/>
		<path fill="#003547" d="M36.4,405.4c-0.2-34.4,16.7-67.1,47.1-96.2l25.3-65.2C40.3,288.6-0.2,343.6,0,403.3
			c0.2,24.3,7,47.7,19.7,69.8l18.6-47.9C37.1,418.7,36.4,412.1,36.4,405.4z"/>
		<path fill="#FFA800" d="M165.1,555.1L153.5,585c14.8,7.4,30.6,14.1,47.1,20.5l11.8-30.2C195.6,569.2,179.8,562.5,165.1,555.1z"/>
		<path fill="#FFA800" d="M361.6,192.6l16.2-41.8c-20.4,3.2-40.3,7-59.4,11.2l-16.7,43C320.8,200.4,340.8,196.2,361.6,192.6z"/>
		<path fill="#DE0611" d="M307.6,603.6l-12.1,31.2c6.9,1.7,13.9,3.2,20.9,4.6l12.3-31.6C321.5,606.8,314.6,605.3,307.6,603.6z"/>
		<path fill="#DE0611" d="M495.9,178.9l15.5-39.6c-7.7,0.2-15.5,0.4-23,0.8l-15.6,40.1C480.4,179.5,488.1,179.1,495.9,178.9z"/>
		<path fill="#FD5B00" d="M328.7,608.2l-12.3,31.6c12.8,2.7,25.8,5.3,39,7.4l12.5-32.1C354.5,612.9,341.4,610.8,328.7,608.2z"/>
		<path fill="#FD5B00" d="M531.4,178.1c2.3,0,4.6,0,6.9,0l15.1-39.2c-7,0-14.1-0.2-21.1,0c-7,0-14.1,0.2-20.9,0.4l-15.5,39.6
			C507.7,178.5,519.4,178.1,531.4,178.1z"/>
		<path fill="#98EFE5" d="M367.9,615L355.4,647c11.4,1.9,23,3.6,34.8,5.3l12.7-32.5C390.9,618.4,379.3,616.7,367.9,615z"/>
		<path fill="#98EFE5" d="M574.6,178.7l15.1-38.6c-12-0.6-24.1-0.8-36.4-1.1l-15.3,39.2C550.4,178.1,562.7,178.3,574.6,178.7z"/>
		<path fill="#003547" d="M472.7,180l15.6-40.1c-13.2,0.6-26.4,1.5-39.2,2.5l-15.8,40.5C446.3,181.9,459.5,180.8,472.7,180z"/>
		<path fill="#003547" d="M272.8,595l-12,30.8c11.2,3.2,22.9,6.3,34.6,9.1l12.1-31.2C295.8,601.1,284.1,598.1,272.8,595z"/>
		<path fill="#6E2F43" d="M433.3,183.1l15.8-40.5c-12.1,1.1-24.3,2.3-36,3.6l-16,41.1C409,185.6,421,184.2,433.3,183.1z"/>
		<path fill="#6E2F43" d="M241.7,585.9l-12,30.4c10,3.4,20.4,6.5,30.9,9.7l12-30.8C262.3,592.2,251.9,589,241.7,585.9z"/>
		<path fill="#F10102" d="M397.1,187.3l16-41.1c-12,1.5-23.7,3-35.3,4.9l-16.2,41.8C373.2,190.7,385,188.8,397.1,187.3z"/>
		<path fill="#F10102" d="M212.3,575.6l-11.8,30.2c9.5,3.6,19.3,7.2,29.4,10.5l12-30.4C231.7,582.5,221.8,579.1,212.3,575.6z"/>
		<path fill="#FFA800" d="M402.9,619.8l-12.7,32.5c10.5,1.5,21.3,2.5,32,3.6l12.8-32.9C424.2,622.2,413.4,620.9,402.9,619.8z"/>
		<path fill="#FFA800" d="M607.5,180.2l14.9-38.2c-10.7-0.8-21.6-1.5-32.7-2.1l-15.1,38.6C585.7,179.1,596.6,179.5,607.5,180.2z"/>
		<path fill="#DE0611" d="M533.3,626.8c-2.8,0-5.6,0-8.4,0L511.5,661c7.6,0.2,15.3,0.2,23,0.2c1.4,0,2.8,0,4,0l13.5-34.6
			C545.8,626.6,539.6,626.8,533.3,626.8z"/>
		<path fill="#DE0611" d="M720.7,193.9l14.2-36.7c-8.4-1.7-16.9-3.2-25.3-4.6l-14.4,37.1C703.8,190.9,712.4,192.4,720.7,193.9z"/>
		<path fill="#FD5B00" d="M552.1,626.6l-13.5,34.6c10.7,0,21.3-0.4,31.6-0.8l13.7-35C573.6,626,562.8,626.2,552.1,626.6z"/>
		<path fill="#FD5B00" d="M749.9,199.6l14.2-36.5c-9.5-2.1-19.2-4.2-29-6.1l-14.4,36.9C730.5,195.6,740.4,197.7,749.9,199.6z"/>
		<path fill="#98EFE5" d="M584.1,625.3l-13.7,35c10.7-0.4,21.3-1.1,31.8-1.7l13.9-35.4C605.6,624.1,594.8,624.7,584.1,625.3z"/>
		<path fill="#98EFE5" d="M778.5,206.3l14.1-36.1c-9.3-2.5-18.8-4.9-28.5-7.2l-14.2,36.5C759.5,201.7,769.2,204,778.5,206.3z"/>
		<path fill="#003547" d="M694.9,189.7l14.4-37.1c-9-1.5-17.9-3-27.1-4l-14.6,37.5C676.9,186.9,685.9,188.2,694.9,189.7z"/>
		<path fill="#003547" d="M496.1,626.4l-13.2,33.7c9.3,0.4,18.8,0.6,28.3,0.8l13.4-34.2C515,626.8,505.5,626.6,496.1,626.4z"/>
		<path fill="#6E2F43" d="M667.8,185.9l14.6-37.5c-9.8-1.3-19.7-2.5-29.5-3.6l-14.8,38C647.9,183.5,657.9,184.6,667.8,185.9z"/>
		<path fill="#6E2F43" d="M465.5,625.1l-13,33.3c10,0.6,20.2,1.3,30.4,1.7l13.2-33.7C485.9,626.2,475.7,625.7,465.5,625.1z"/>
		<path fill="#F10102" d="M637.9,182.7l14.8-38c-9.8-1.1-19.9-1.9-30.1-2.7l-14.9,38.2C618,181,628.1,181.6,637.9,182.7z"/>
		<path fill="#F10102" d="M435.2,623l-12.8,32.9c9.8,1.1,19.9,1.9,30.1,2.5l13-33.3C455.3,624.5,445.3,623.8,435.2,623z"/>
		<path fill="#FFA800" d="M616.1,623.2l-13.9,35.4c10-0.6,19.9-1.5,29.5-2.5l14.1-35.8C636,621.3,626.1,622.4,616.1,623.2z"/>
		<path fill="#FFA800" d="M804.4,213.5l13.9-35.6c-8.4-2.5-17.1-5.1-25.8-7.4l-14.1,36.1C787.3,208.6,795.9,211,804.4,213.5z"/>
		<path fill="#DE0611" d="M728.1,607.6l-14.6,37.3c6.7-1.3,13.4-2.5,20-3.8l14.8-37.7C741.6,604.9,734.8,606.3,728.1,607.6z"/>
		<path fill="#DE0611" d="M888,244.3l13.7-35c-5.1-2.3-10.4-4.6-15.8-7l-13.7,35.2C877.7,239.6,882.9,242,888,244.3z"/>
		<path fill="#FD5B00" d="M748.1,603.4l-14.8,37.7c9.5-1.9,18.8-4,27.9-6.1l14.9-38.4C767.1,599,757.8,601.3,748.1,603.4z"/>
		<path fill="#FD5B00" d="M909.5,254.8l13.7-35c-7-3.6-14.1-7.2-21.4-10.5l-13.7,35C895.4,247.6,902.6,251.2,909.5,254.8z"/>
		<path fill="#98EFE5" d="M776.4,596.4l-14.9,38.4c11.1-2.5,21.8-5.5,32.3-8.4l15.3-39.4C798.6,590.5,787.7,593.5,776.4,596.4z"/>
		<path fill="#98EFE5" d="M933.4,268.3l13.7-35.4c-7.7-4.6-15.6-9.1-23.9-13.3l-13.7,35.2C917.9,259.2,925.8,263.7,933.4,268.3z"/>
		<path fill="#003547" d="M872.4,237.3l13.7-35.2c-7.6-3.2-15.3-6.3-23.4-9.5L849,227.8C856.9,231,864.7,234.1,872.4,237.3z"/>
		<path fill="#003547" d="M698.9,612.9l-14.4,36.7c9.7-1.5,19.3-3,28.8-4.9l14.6-37.3C718.4,609.5,708.7,611.2,698.9,612.9z"/>
		<path fill="#6E2F43" d="M848.8,228l13.7-35.2c-6.7-2.5-13.5-5.1-20.4-7.4l-13.9,35.4C835.5,223.2,842.2,225.5,848.8,228z"/>
		<path fill="#6E2F43" d="M674.3,616.7l-14.2,36.3c8.3-1.1,16.3-2.1,24.6-3.4l14.4-36.7C690.8,614.4,682.6,615.6,674.3,616.7z"/>
		<path fill="#F10102" d="M828.5,220.9l13.9-35.4c-7.9-2.7-15.8-5.3-23.9-7.8l-13.9,35.6C812.6,215.8,820.7,218.3,828.5,220.9z"/>
		<path fill="#F10102" d="M645.8,620.3l-14.1,35.8c9.5-0.8,19-1.9,28.3-3.2l14.2-36.3C664.8,617.9,655.5,619.2,645.8,620.3z"/>
		<path fill="#FFA800" d="M809.1,587.1l-15.3,39.4c8.1-2.3,16-4.6,23.7-7l15.8-40.5C825.5,581.9,817.4,584.6,809.1,587.1z"/>
		<path fill="#FFA800" d="M950.1,279.3l13.9-35.6c-5.4-3.6-11.1-7.2-16.9-10.5l-13.7,35.2C939.2,271.9,944.8,275.5,950.1,279.3z"/>
		<path fill="#DE0611" d="M1017.6,353.3l17.6-44.9c-4.4-5.9-9.1-11.6-14.2-17.1l-15.8,40.7C1009.9,338.7,1014.1,345.9,1017.6,353.3z
			"/>
		<path fill="#DE0611" d="M925,537.4l-18.5,47.2c9-4.4,17.8-8.9,26.2-13.5l20.2-52.1C944.1,525.6,934.8,531.7,925,537.4z"/>
		<path fill="#FD5B00" d="M952.9,519.2l-20.4,51.9c10.7-5.9,21.1-12.2,30.8-18.8l25-63.9C978,499.2,966.3,509.3,952.9,519.2z"/>
		<path fill="#FD5B00" d="M1027.6,387.5l22-56.5c-4.2-7.8-9-15.4-14.6-22.8l-17.6,44.9C1022.7,364.3,1026.2,375.9,1027.6,387.5z"/>
		<path fill="#98EFE5" d="M1049.6,330.9l-22,56.5c0.5,4,0.7,7.8,0.7,11.8c0.2,31.6-14.2,61.8-40.1,89.2l-25,64.1
			c13-8.6,25-17.9,35.7-27.2l63.3-162.4C1059.4,352,1055,341.3,1049.6,330.9z"/>
		<path fill="#003547" d="M1004.8,331.6l15.8-40.7c-5.1-5.7-10.7-11.2-16.5-16.4l-14.8,38.2C995.1,318.7,1000.2,325.2,1004.8,331.6z
			"/>
		<path fill="#003547" d="M895.4,553.4l-17.2,44.1c9.7-4,18.8-8.2,27.9-12.7l18.5-47.2C915.3,543.1,905.6,548.3,895.4,553.4z"/>
		<path fill="#6E2F43" d="M989.3,312.6l14.8-38.2c-5.3-4.9-10.9-9.5-16.9-14.1L972.9,297C978.7,302,984.2,307.3,989.3,312.6z"/>
		<path fill="#6E2F43" d="M868.4,565.6l-16.5,42.2c9-3.4,17.8-6.7,26.4-10.3l17.2-44.1C886.8,557.6,877.7,561.6,868.4,565.6z"/>
		<path fill="#F10102" d="M833.4,579.1l-15.8,40.5c11.6-3.6,23-7.6,33.9-11.6l16.3-42.2C856.8,570.5,845.3,574.9,833.4,579.1z"/>
		<path fill="#F10102" d="M972.8,296.8l14.2-36.7c-7.2-5.7-14.9-11.2-23-16.4l-13.9,35.6C958.2,285,965.7,290.9,972.8,296.8z"/>
		<path fill="#FFA800" d="M1066.3,383.4c-0.7-6.7-1.9-13.3-3.7-19.8L1000,524.3c6.5-5.7,12.7-11.6,18.3-17.7L1066.3,383.4z"/>
		<path fill="#6E2F43" d="M1061.9,433.4l-10.2,26.1C1055.9,451.1,1059.2,442.3,1061.9,433.4z"/>
		<path fill="#F10102" d="M1051.7,459.6l10.2-26.1c3.3-12,5.1-24.3,5.1-36.7c0-4.4-0.4-8.9-0.7-13.3l-48,123.1
			C1032.2,491.6,1043.4,476,1051.7,459.6z"/>
	</g>
</g>
</svg>
