<?xml version="1.0" encoding="utf-8"?>
<!-- Generator: Adobe Illustrator 17.1.0, SVG Export Plug-In . SVG Version: 6.00 Build 0)  -->
<!DOCTYPE svg PUBLIC "-//W3C//DTD SVG 1.1//EN" "http://www.w3.org/Graphics/SVG/1.1/DTD/svg11.dtd">
<svg version="1.1" id="Layer_1" xmlns="http://www.w3.org/2000/svg" xmlns:xlink="http://www.w3.org/1999/xlink" x="0px" y="0px"
	 viewBox="0 187.4 1280 612.6" enable-background="new 0 187.4 1280 612.6" xml:space="preserve">
<g id="Layer_5" display="none">
</g>
<g id="Layer_1_copy_5" display="none">
	
		<rect x="1289.2" y="-125" transform="matrix(-0.965 -0.2624 0.2624 -0.965 2526.4067 1068.5409)" display="inline" fill="#F10102" width="90.6" height="981.2"/>
	
		<rect x="1635" y="-38.2" transform="matrix(-0.965 -0.2624 0.2624 -0.965 3130.4539 1322.791)" display="inline" fill="#F10102" width="37" height="981.2"/>
	
		<rect x="1582.5" y="-41.1" transform="matrix(-0.965 -0.2624 0.2624 -0.965 3109.6948 1314.23)" display="inline" fill="#5E4A56" width="120.1" height="981.2"/>
	
		<rect x="1528.7" y="-58.7" transform="matrix(-0.965 -0.2624 0.2624 -0.965 2987.1934 1262.6544)" display="inline" fill="#003547" width="98.3" height="981.2"/>
	
		<rect x="1470.3" y="-75.6" transform="matrix(-0.965 -0.2624 0.2624 -0.965 2869.4146 1213.1064)" display="inline" fill="#DE0611" width="90.9" height="981.2"/>
	
		<rect x="1446.7" y="-82.9" transform="matrix(-0.965 -0.2624 0.2624 -0.965 2819.543 1191.8903)" display="inline" fill="#FD5B00" width="85.2" height="981.2"/>
	
		<rect x="1405.1" y="-99.8" transform="matrix(-0.965 -0.2624 0.2624 -0.965 2744.7429 1161.1014)" display="inline" fill="#98EFE5" width="89.5" height="994.2"/>
	
		<rect x="1372.7" y="-106.6" transform="matrix(-0.965 -0.2624 0.2624 -0.965 2654.4912 1122.6024)" display="inline" fill="#FFA800" width="58.9" height="981.2"/>
	
		<rect x="1652.1" y="-23.5" transform="matrix(-0.965 -0.2624 0.2624 -0.965 3232.3401 1365.7699)" display="inline" fill="#00BAAC" width="110.6" height="981.2"/>
	
		<rect x="1704.9" y="-7.2" transform="matrix(-0.965 -0.2624 0.2624 -0.965 3346.3535 1413.6147)" display="inline" fill="#03AA8A" width="125.4" height="981.2"/>
	
		<rect x="1776.7" y="2.4" transform="matrix(-0.965 -0.2624 0.2624 -0.965 3413.1182 1441.7441)" display="inline" fill="#F10102" width="52.3" height="981.2"/>
	
		<rect x="1948.7" y="46.4" transform="matrix(-0.965 -0.2624 0.2624 -0.965 3719.4849 1570.6383)" display="inline" fill="#F10102" width="31.9" height="981.2"/>
	
		<rect x="1917.7" y="38.3" transform="matrix(-0.965 -0.2624 0.2624 -0.965 3663.1633 1546.9099)" display="inline" fill="#5E4A56" width="34.4" height="981.2"/>
	
		<rect x="1886.9" y="29.5" transform="matrix(-0.965 -0.2624 0.2624 -0.965 3602.4512 1521.3882)" display="inline" fill="#003547" width="31.9" height="981.2"/>
	
		<rect x="1853.7" y="20.9" transform="matrix(-0.965 -0.2624 0.2624 -0.965 3541.9768 1495.9756)" display="inline" fill="#DE0611" width="34.4" height="981.2"/>
	
		<rect x="1827.6" y="13.4" transform="matrix(-0.965 -0.2624 0.2624 -0.965 3490.2065 1474.03)" display="inline" fill="#FD5B00" width="31.9" height="981.2"/>
	
		<rect x="1787.3" y="3.4" transform="matrix(-0.965 -0.2624 0.2624 -0.965 3420.521 1444.7383)" display="inline" fill="#98EFE5" width="38.9" height="981.2"/>
	
		<rect x="1776.6" y="3.3" transform="matrix(-0.965 -0.2624 0.2624 -0.965 3418.949 1444.3037)" display="inline" fill="#FFA800" width="58.7" height="981.2"/>
	
		<rect x="1979.5" y="55.1" transform="matrix(-0.965 -0.2624 0.2624 -0.965 3780.1973 1596.1602)" display="inline" fill="#00BAAC" width="34.4" height="981.2"/>
	
		<rect x="2012.8" y="63.8" transform="matrix(-0.965 -0.2624 0.2624 -0.965 3840.9094 1621.6819)" display="inline" fill="#03AA8A" width="31.9" height="981.2"/>
	
		<rect x="2043.6" y="71.9" transform="matrix(-0.965 -0.2624 0.2624 -0.965 3896.9241 1645.3502)" display="inline" fill="#F10102" width="29.5" height="981.2"/>
	
		<rect x="2233.5" y="123.5" transform="matrix(-0.965 -0.2624 0.2624 -0.965 4256.5688 1796.5785)" display="inline" fill="#F10102" width="29.5" height="981.2"/>
	
		<rect x="2205.1" y="116.2" transform="matrix(-0.965 -0.2624 0.2624 -0.965 4205.0073 1775.0906)" display="inline" fill="#5E4A56" width="31.9" height="981.2"/>
	
		<rect x="2179" y="108.4" transform="matrix(-0.965 -0.2624 0.2624 -0.965 4150.9448 1752.2815)" display="inline" fill="#003547" width="27" height="981.2"/>
	
		<rect x="2148.1" y="100.6" transform="matrix(-0.965 -0.2624 0.2624 -0.965 4097.0981 1729.4937)" display="inline" fill="#DE0611" width="31.9" height="981.2"/>
	
		<rect x="2124.4" y="93.9" transform="matrix(-0.965 -0.2624 0.2624 -0.965 4049.9272 1709.7996)" display="inline" fill="#FD5B00" width="29.5" height="981.2"/>
	
		<rect x="2100.7" y="86.8" transform="matrix(-0.965 -0.2624 0.2624 -0.965 4000.3953 1688.988)" display="inline" fill="#98EFE5" width="24.6" height="981.2"/>
	
		<rect x="2072.2" y="79.7" transform="matrix(-0.965 -0.2624 0.2624 -0.965 3951.0779 1668.1981)" display="inline" fill="#FFA800" width="29.5" height="981.2"/>
	
		<rect x="2262.1" y="131.3" transform="matrix(-0.965 -0.2624 0.2624 -0.965 4310.7227 1819.4264)" display="inline" fill="#00BAAC" width="29.5" height="981.2"/>
	
		<rect x="2290.6" y="139" transform="matrix(-0.965 -0.2624 0.2624 -0.965 4364.6821 1842.0372)" display="inline" fill="#03AA8A" width="29.5" height="981.2"/>
	
		<rect x="2319.1" y="146.5" transform="matrix(-0.965 -0.2624 0.2624 -0.965 4416.2695 1863.9061)" display="inline" fill="#F10102" width="27" height="981.2"/>
	
		<rect x="2490.1" y="192.6" transform="matrix(-0.965 -0.2624 0.2624 -0.965 4737.8135 1999.0607)" display="inline" fill="#F10102" width="24.6" height="981.2"/>
	
		<rect x="2463.9" y="186.1" transform="matrix(-0.965 -0.2624 0.2624 -0.965 4692.8877 1980.0641)" display="inline" fill="#5E4A56" width="29.5" height="981.2"/>
	
		<rect x="2440.2" y="179" transform="matrix(-0.965 -0.2624 0.2624 -0.965 4643.3545 1959.2529)" display="inline" fill="#003547" width="24.6" height="981.2"/>
	
		<rect x="2411.7" y="171.9" transform="matrix(-0.965 -0.2624 0.2624 -0.965 4594.0376 1938.4629)" display="inline" fill="#DE0611" width="29.5" height="981.2"/>
	
		<rect x="2390.3" y="165.8" transform="matrix(-0.965 -0.2624 0.2624 -0.965 4551.1108 1920.4912)" display="inline" fill="#FD5B00" width="27" height="981.2"/>
	
		<rect x="2371.4" y="159.7" transform="matrix(-0.965 -0.2624 0.2624 -0.965 4508.4224 1902.6289)" display="inline" fill="#98EFE5" width="19.7" height="981.2"/>
	
		<rect x="2345.1" y="153.6" transform="matrix(-0.965 -0.2624 0.2624 -0.965 4465.4956 1884.6575)" display="inline" fill="#FFA800" width="27" height="981.2"/>
	
		<rect x="2513.7" y="199.4" transform="matrix(-0.965 -0.2624 0.2624 -0.965 4784.7803 2018.8932)" display="inline" fill="#00BAAC" width="27" height="981.2"/>
	
		<rect x="2539.9" y="206.5" transform="matrix(-0.965 -0.2624 0.2624 -0.965 4834.4043 2039.7433)" display="inline" fill="#03AA8A" width="27" height="981.2"/>
	
		<rect x="2566" y="213.3" transform="matrix(-0.965 -0.2624 0.2624 -0.965 4881.5532 2059.6528)" display="inline" fill="#F10102" width="24.6" height="981.2"/>
	
		<rect x="2727.5" y="257.2" transform="matrix(-0.965 -0.2624 0.2624 -0.965 5187.3662 2188.3142)" display="inline" fill="#F10102" width="24.6" height="981.2"/>
	
		<rect x="2703.7" y="251" transform="matrix(-0.965 -0.2624 0.2624 -0.965 5144.6079 2170.1982)" display="inline" fill="#5E4A56" width="27" height="981.2"/>
	
		<rect x="2680" y="244.2" transform="matrix(-0.965 -0.2624 0.2624 -0.965 5097.4585 2150.2886)" display="inline" fill="#003547" width="24.6" height="981.2"/>
	
		<rect x="2653.7" y="237.5" transform="matrix(-0.965 -0.2624 0.2624 -0.965 5049.8896 2130.4961)" display="inline" fill="#DE0611" width="27" height="981.2"/>
	
		<rect x="2632.4" y="231.6" transform="matrix(-0.965 -0.2624 0.2624 -0.965 5009.606 2113.3208)" display="inline" fill="#FD5B00" width="27" height="981.2"/>
	
		<rect x="2615.9" y="225.9" transform="matrix(-0.965 -0.2624 0.2624 -0.965 4969.1001 2096.5605)" display="inline" fill="#98EFE5" width="17.3" height="981.2"/>
	
		<rect x="2589.7" y="220" transform="matrix(-0.965 -0.2624 0.2624 -0.965 4928.7246 2079.3469)" display="inline" fill="#FFA800" width="27" height="981.2"/>
	
		<rect x="2751.2" y="263.6" transform="matrix(-0.965 -0.2624 0.2624 -0.965 5232.2778 2207.0894)" display="inline" fill="#00BAAC" width="24.6" height="981.2"/>
	
		<rect x="2775" y="270" transform="matrix(-0.965 -0.2624 0.2624 -0.965 5277.3726 2225.9412)" display="inline" fill="#03AA8A" width="24.6" height="981.2"/>
	
		<rect x="2798.6" y="276.2" transform="matrix(-0.965 -0.2624 0.2624 -0.965 5319.7324 2243.959)" display="inline" fill="#F10102" width="22.2" height="981.2"/>
	
		<rect x="2953" y="318.1" transform="matrix(-0.965 -0.2624 0.2624 -0.965 5612.1509 2366.8635)" display="inline" fill="#F10102" width="22.2" height="981.2"/>
	
		<rect x="2929.2" y="312.1" transform="matrix(-0.965 -0.2624 0.2624 -0.965 5569.3267 2349.0908)" display="inline" fill="#5E4A56" width="24.6" height="981.2"/>
	
		<rect x="2907.9" y="306" transform="matrix(-0.965 -0.2624 0.2624 -0.965 5526.6738 2331.2341)" display="inline" fill="#003547" width="22.2" height="981.2"/>
	
		<rect x="2881.7" y="299.4" transform="matrix(-0.965 -0.2624 0.2624 -0.965 5481.6782 2311.9841)" display="inline" fill="#DE0611" width="27" height="981.2"/>
	
		<rect x="2862.8" y="293.9" transform="matrix(-0.965 -0.2624 0.2624 -0.965 5443.6318 2295.9431)" display="inline" fill="#FD5B00" width="24.6" height="981.2"/>
	
		<rect x="2846.3" y="288.5" transform="matrix(-0.965 -0.2624 0.2624 -0.965 5405.4175 2280.0461)" display="inline" fill="#98EFE5" width="17.3" height="981.2"/>
	
		<rect x="2820" y="282.7" transform="matrix(-0.965 -0.2624 0.2624 -0.965 5364.8379 2262.9705)" display="inline" fill="#FFA800" width="27" height="981.2"/>
	
		<rect x="2974.3" y="324.3" transform="matrix(-0.965 -0.2624 0.2624 -0.965 5654.7261 2384.9028)" display="inline" fill="#00BAAC" width="24.6" height="981.2"/>
	
		<rect x="2998.1" y="330.4" transform="matrix(-0.965 -0.2624 0.2624 -0.965 5697.5615 2402.8359)" display="inline" fill="#03AA8A" width="22.2" height="981.2"/>
	
		<rect x="3019.5" y="335.9" transform="matrix(-0.965 -0.2624 0.2624 -0.965 5735.6992 2418.9153)" display="inline" fill="#F10102" width="19.7" height="981.2"/>
	
		<rect x="3152.5" y="372.1" transform="matrix(-0.965 -0.2624 0.2624 -0.965 5987.5518 2524.9661)" display="inline" fill="#F10102" width="19.7" height="981.2"/>
	
		<rect x="3133.5" y="366.9" transform="matrix(-0.965 -0.2624 0.2624 -0.965 5951.5825 2509.7668)" display="inline" fill="#5E4A56" width="19.7" height="981.2"/>
	
		<rect x="3114.5" y="361.7" transform="matrix(-0.965 -0.2624 0.2624 -0.965 5915.6128 2494.5676)" display="inline" fill="#003547" width="19.7" height="981.2"/>
	
		<rect x="3090.7" y="356" transform="matrix(-0.965 -0.2624 0.2624 -0.965 5875.1396 2477.752)" display="inline" fill="#DE0611" width="24.6" height="981.2"/>
	
		<rect x="3074.1" y="350.8" transform="matrix(-0.965 -0.2624 0.2624 -0.965 5839.0786 2462.5146)" display="inline" fill="#FD5B00" width="19.7" height="981.2"/>
	
		<rect x="3059.9" y="346.2" transform="matrix(-0.965 -0.2624 0.2624 -0.965 5807.5913 2449.1479)" display="inline" fill="#98EFE5" width="14.8" height="981.2"/>
	
		<rect x="3038.4" y="341.5" transform="matrix(-0.965 -0.2624 0.2624 -0.965 5773.8149 2435.2102)" display="inline" fill="#FFA800" width="22.2" height="981.2"/>
	
		<rect x="3171.4" y="377.3" transform="matrix(-0.965 -0.2624 0.2624 -0.965 6023.3066 2540.1438)" display="inline" fill="#00BAAC" width="19.7" height="981.2"/>
	
		<rect x="3190.4" y="382.5" transform="matrix(-0.965 -0.2624 0.2624 -0.965 6059.2764 2555.3425)" display="inline" fill="#03AA8A" width="19.7" height="981.2"/>
</g>
<g id="Layer_1_copy_6">
</g>
<g id="Layer_1_copy">
	<g>
		<path fill="none" d="M1207.5,417.6c-5.3-7.3-11.3-14.7-17.9-21.8c-3.8-4-7.7-8-11.9-11.9c-6-5.5-12.4-11-19.1-16.4
			c-5.6-4.4-11.6-8.8-17.7-13.1c-6.4-4.4-13-8.7-19.9-12.9c-6.5-3.9-13.2-7.8-20.2-11.6c-5.4-2.9-11-5.9-16.8-8.7
			c-7.3-3.7-14.8-7.1-22.5-10.5c-6.2-2.7-12.5-5.4-19-8.1c-6.2-2.6-12.6-5-19.1-7.5c-7-2.6-14-5.1-21.2-7.6
			c-5.1-1.7-10.3-3.4-15.5-5.1c-7-2.2-14.2-4.4-21.4-6.5c-7.1-2.1-14.2-4-21.5-6c-7.7-2.1-15.7-4-23.6-5.9
			c-7.8-1.8-15.8-3.7-23.7-5.4c-7.2-1.5-14.6-2.9-21.9-4.4c-8.6-1.6-17.3-3.2-26.1-4.7c-7.3-1.2-14.7-2.3-22.2-3.4
			c-7.3-1.1-14.8-2.1-22.3-3.1c-8.1-1-16.2-2-24.4-2.8c-6.7-0.7-13.6-1.3-20.3-2c-8.1-0.7-16.3-1.3-24.6-2
			c-8.2-0.6-16.4-1.1-24.6-1.5c-8.9-0.5-17.9-0.9-26.8-1.1c-9.7-0.4-19.3-0.5-29-0.6c-4.8,0-9.7-0.1-14.4-0.1c-3.5,0-7,0-10.5,0
			c-9.8,0.1-19.6,0.2-29.2,0.5c-9.2,0.2-18.2,0.6-27.3,1.1c-8.6,0.4-17,1-25.3,1.5c-7.3,0.5-14.7,1.1-22,1.7
			c-17.3,1.5-34.3,3.3-51,5.5c-22,2.8-43.4,6.1-64.3,10c-16.6,3.1-32.9,6.5-48.8,10.3c-9.1,2.1-18,4.4-26.8,6.7
			c-21.5,5.8-42.2,12-61.9,18.8c-9.5,3.3-19,6.9-28,10.4c-12.6,5-24.8,10.2-36.5,15.7c-23,10.8-44.1,22.4-62.8,34.8
			c-25.2,16.6-46.1,34.6-62.3,53.6c-24.4,28.8-37.8,59.8-37.8,92.4c0,13.7,2.4,27.2,7,40.4c7.1,20.3,19.5,39.8,36.3,58.3
			c12.7,13.8,27.9,27,45.5,39.7c8.9,6.4,18.5,12.6,28.5,18.6c7.3,4.3,14.8,8.6,22.8,12.7c16.2,8.4,33.5,16.5,52,24
			c7.6,3.1,15.3,6.1,23.3,8.9c13.8,5,28.3,9.9,43.1,14.4c18.7,5.6,38.2,10.9,58.4,15.7c15.4,3.7,31.2,7,47.5,9.9
			c6.9,1.2,13.8,2.4,20.8,3.7c8,1.3,16,2.6,24.1,3.8c8.7,1.2,17.4,2.4,26.3,3.5c9.4,1.1,18.8,2.2,28.4,3.2
			c8.1,0.9,16.3,1.6,24.5,2.2c9.5,0.7,19.1,1.5,28.8,2c8.8,0.5,17.7,1,26.8,1.2c8.2,0.4,16.5,0.5,24.8,0.7c8.3,0.1,16.6,0.2,25,0.2
			c0.4,0,0.7,0,1.2,0c6.6,0,13.1,0,19.7-0.1c8.4-0.1,16.8-0.4,25.1-0.6c7.7-0.2,15.4-0.6,23.1-1c7.8-0.4,15.5-0.9,23.3-1.3
			c9.3-0.6,18.5-1.3,27.5-2.2c7.8-0.7,15.7-1.5,23.5-2.3c8.7-1,17.3-2,25.7-3.1c8.7-1.1,17.3-2.3,25.8-3.7
			c8.1-1.2,15.9-2.6,23.9-3.9c8.1-1.3,16-2.9,24-4.4c5.9-1.1,11.7-2.3,17.5-3.5c8.2-1.7,16.3-3.5,24.2-5.5
			c7.5-1.8,14.8-3.7,22.2-5.6c7.6-2,14.9-4,22.3-6.2c9.2-2.7,18.1-5.5,26.9-8.3c6.9-2.3,13.7-4.7,20.3-7c8.6-3.1,17-6.2,25.1-9.5
			c8.7-3.5,17.3-7.1,25.5-10.9c8.1-3.7,15.9-7.3,23.5-11.3c9.1-4.7,17.9-9.4,26.2-14.3c5.9-3.4,11.5-7,17-10.5
			c9.8-6.4,19-13,27.5-19.7c8.6-6.7,16.4-13.7,23.6-20.8c11.5-11.4,21.3-23.3,29-35.4c14.6-22.8,22.4-46.9,22.4-71.8
			c0-6.2-0.5-12.5-1.5-18.6c-2.1-12.9-6.1-25.3-12.1-37.6C1217.2,432.6,1212.7,425,1207.5,417.6z"/>
		<path fill="#F1F3F4" d="M610.8,187.8c-9.2,0.2-18.2,0.5-27.3,0.9c-8.4,0.4-16.9,0.7-25.3,1.3c-7.3,0.5-14.7,1-21.9,1.5
			c-17.3,1.3-34.1,3.1-50.9,5c-21.8,2.6-43.2,5.8-64.1,9.3l-11.3,48c20.8-3.9,42.3-7.2,64.3-10c16.8-2.1,33.8-3.9,51-5.5
			c7.3-0.6,14.6-1.2,22-1.7c8.4-0.6,16.9-1.1,25.3-1.5c9.1-0.5,18.1-0.9,27.3-1.1c9.7-0.2,19.5-0.5,29.2-0.5l10.9-46
			C630.1,187.4,620.5,187.5,610.8,187.8z"/>
		<path fill="#003547" d="M533.4,755.3L533.4,755.3c-8.3-0.8-16.3-1.5-24.5-2.2v-0.2c-9.5-1-19.1-2-28.4-3.2l0,0.2
			c-8.8-1.1-17.5-2.2-26.2-3.6l0,0c-8.1-1.2-16.2-2.4-24.1-3.8c-7.1-1.1-14-2.3-20.8-3.5c-16.2-3.1-32.1-6.4-47.5-9.9l0-0.1
			c-20.2-4.8-39.7-9.9-58.4-15.7c-14.8-4.5-29.2-9.3-43.1-14.4c-8-2.9-15.7-5.9-23.3-8.9c-18.5-7.5-35.9-15.5-52-24
			c-7.8-4.2-15.4-8.3-22.8-12.7c-10-6-19.6-12.1-28.5-18.6c-17.6-12.6-32.8-25.8-45.5-39.7c-16.9-18.5-29.2-38.1-36.3-58.3
			c-4.7-13.2-7-26.7-7-40.4c0-32.6,13.3-63.6,37.8-92.4c16.2-18.9,37.3-36.8,62.3-53.5c18.7-12.4,39.8-24,62.8-34.8
			c11.6-5.4,23.7-10.6,36.5-15.7c9.1-3.5,18.5-7.1,28-10.4c19.7-6.9,40.4-13.1,61.9-18.8c8.8-2.3,17.7-4.5,26.8-6.7
			c15.9-3.7,32.2-7.1,48.8-10.3l11.1-48c-16.5,2.9-32.8,6.1-48.7,9.5c-9.1,2-18,4-26.7,6.2c-21.3,5.3-41.9,11.1-61.7,17.5
			c-9.4,3.1-18.7,6.2-27.9,9.4c-12.4,4.4-24.4,9.1-36.1,14c-21.9,9.1-42.3,18.8-61.6,29.2c-21.4,11.6-41,24.1-58.5,37.2
			C36.8,376.6,0,433,0,493.8c0,36.6,13.3,71.6,37.9,104.1c11.1,14.7,24.5,28.9,40,42.5c14,12.2,29.5,23.9,46.6,35
			c9.2,6,18.7,11.7,28.8,17.4c7.3,4.2,15.1,8.2,22.9,12.1c16.4,8.3,33.9,16.2,52.1,23.5c7.6,3.1,15.3,6,23.3,8.9
			c14,5.1,28.3,9.9,43.1,14.4c18.7,5.8,38.2,11.1,58.3,15.9v0c15.4,3.7,31.2,7.1,47.4,10.3c6.9,1.3,13.7,2.6,20.7,3.8
			c8,1.3,15.9,2.7,24,3.9l0,0c8.7,1.3,17.4,2.6,26.2,3.7l0,0c9.4,1.2,18.8,2.3,28.4,3.3v0.2c8.1,0.9,16.2,1.7,24.4,2.3l0,0
			c9.4,0.9,19.1,1.6,28.6,2.2l9.3-40C552.4,756.6,543,756,533.4,755.3z M353,767.5"/>
		<path fill="#03AA8A" d="M930.2,220.7c-7.8-2-15.8-3.8-23.7-5.5c-7.2-1.6-14.6-3.1-21.9-4.5c-8.6-1.7-17.3-3.3-25.9-4.8
			c-7.3-1.2-14.7-2.4-22-3.7c-7.3-1.1-14.7-2.2-22.2-3.2c-8.1-1.1-16.2-2.1-24.4-3.1c-6.7-0.7-13.5-1.5-20.3-2.2
			c-8.1-0.9-16.3-1.5-24.5-2.2c-8.2-0.6-16.4-1.2-24.6-1.7c-8.8-0.5-17.7-1-26.8-1.3c-9.5-0.4-19.2-0.6-29-0.9v-0.2
			c-8.2-0.1-16.5-0.4-24.8-0.4l0,0l-10.6,46.1c3.5,0,7,0,10.5,0c4.9,0,9.7,0.1,14.4,0.1c9.8,0.1,19.5,0.4,29,0.6
			c9.1,0.2,18,0.7,26.8,1.1c8.3,0.5,16.5,1,24.6,1.5c8.2,0.6,16.4,1.2,24.6,2c6.9,0.6,13.6,1.3,20.3,2c8.2,0.9,16.3,1.8,24.4,2.8
			c7.5,1,14.9,2,22.3,3.1c7.5,1.1,14.8,2.2,22.2,3.4c8.8,1.5,17.5,2.9,26.1,4.7c7.3,1.3,14.7,2.8,21.9,4.4
			c8.1,1.7,15.9,3.4,23.7,5.4c8,1.8,15.9,3.9,23.6,5.9l10-43.6C946,224.6,938.2,222.7,930.2,220.7z"/>
		<path fill="#F1F3F4" d="M994.5,707.5c-8.8,2.9-17.7,5.6-26.9,8.3c-7.3,2.1-14.7,4.2-22.3,6.2c-7.2,2-14.7,3.8-22.2,5.6
			c-8,2-16,3.8-24.2,5.5c-5.8,1.2-11.6,2.4-17.5,3.5c-8,1.6-15.9,3.1-24,4.4c-7.8,1.3-15.8,2.7-23.9,3.9c-8.6,1.3-17.1,2.6-25.8,3.7
			c-8.4,1.1-17,2.1-25.7,3.1c-7.7,0.9-15.5,1.6-23.5,2.3c-9.2,0.9-18.4,1.6-27.5,2.2c-7.7,0.5-15.4,1-23.3,1.3
			c-7.7,0.4-15.4,0.7-23.1,1c-8.3,0.2-16.8,0.5-25.1,0.6c-6.5,0.1-13.1,0.1-19.7,0.1c-0.4,0-0.7,0-1.2,0c-8.3,0-16.6-0.1-25-0.2
			c-8.3-0.1-16.6-0.4-24.8-0.7c-8.9-0.4-17.9-0.7-26.8-1.2l-9.3,40c8.8,0.6,17.7,1.1,26.8,1.5c8.2,0.4,16.5,0.6,24.8,0.9
			c8.2,0.2,16.5,0.4,24.8,0.4c3.5,0,7.1,0,10.8,0c3.4,0,6.7,0,10.2,0c8.4-0.1,16.8-0.2,25.1-0.4c7.7-0.2,15.4-0.5,23.1-0.9
			c7.8-0.4,15.5-0.7,23.3-1.2c9.3-0.6,18.5-1.2,27.5-2c7.8-0.6,15.7-1.3,23.4-2.1c8.6-0.9,17.1-1.8,25.7-2.8
			c8.7-1.1,17.3-2.2,25.8-3.4c8-1.1,15.9-2.3,23.7-3.7c8.1-1.3,16-2.7,23.9-4.2c5.9-1.1,11.6-2.2,17.5-3.4
			c8.1-1.6,16.2-3.4,24.1-5.1c7.5-1.7,14.8-3.4,22-5.3c7.5-1.8,14.9-3.8,22.2-5.8c9.1-2.4,18-5,26.8-7.7c6.9-2.1,13.6-4.3,20.2-6.5
			l10.4-45C1008.2,703,1001.3,705.3,994.5,707.5z"/>
		<path fill="#DE0611" d="M1052.5,259.5c-6.2-2.6-12.6-5-19.1-7.5c-7-2.6-14-5.1-21.2-7.6c-5.1-1.7-10.3-3.4-15.4-5.1
			c-7-2.2-14.2-4.4-21.4-6.6c-7.1-2.1-14.2-4.2-21.5-6.1l-10.2,43.7c7.2,2,14.4,3.9,21.5,6c7.2,2.1,14.4,4.3,21.4,6.5
			c5.3,1.7,10.4,3.3,15.5,5.1c7.2,2.4,14.2,5,21.2,7.6c6.5,2.4,12.9,4.9,19.1,7.5c6.5,2.6,12.7,5.3,19,8.1l10-43.3
			C1065.2,264.8,1058.9,262.1,1052.5,259.5z"/>
		<path fill="#FFA800" d="M1277.4,466.3c-2.2-11.7-5.8-23.4-10.6-34.8c-4.3-10-9.7-19.9-16-29.6c-4.8-7.2-10-14.3-15.9-21.4
			c-4.7-5.6-9.7-11.1-14.9-16.5c-5.9-6-12.1-11.9-18.8-17.7c-3.9-3.4-8.1-6.9-12.2-10.2c-6.2-5-12.7-9.8-19.6-14.6
			c-5.9-4-11.9-8.1-18-12c-6.5-4.2-13.2-8.2-20.1-12.1c-6.6-3.8-13.3-7.5-20.3-11.1c-5.5-2.8-11.1-5.6-16.8-8.4
			c-7.3-3.5-14.9-7-22.6-10.4l-10,43.3c7.7,3.4,15.3,7,22.5,10.5c5.8,2.8,11.3,5.8,16.8,8.7c7,3.8,13.7,7.6,20.2,11.6
			c7,4.2,13.6,8.4,19.9,12.9c6.2,4.3,12.1,8.7,17.7,13.1c6.7,5.4,13.2,10.8,19.1,16.4c4.2,3.9,8.1,7.8,11.9,11.9
			c6.6,7.1,12.6,14.3,17.9,21.8c5.3,7.3,9.8,14.9,13.5,22.5c6,12.2,10.2,24.7,12.1,37.6c1,6.1,1.5,12.4,1.5,18.6
			c0,24.8-7.8,49-22.4,71.8c-7.8,12.1-17.5,24-29,35.4c-7.2,7.1-15.1,14.1-23.6,20.8c-8.6,6.7-17.7,13.3-27.5,19.7
			c-5.5,3.5-11.1,7.1-17,10.5c-8.3,4.9-17.1,9.7-26.2,14.3c-7.6,3.8-15.4,7.6-23.4,11.3l0-0.2c-8.5,3.9-16.9,7.6-25.6,11
			c-8.2,3.3-16.5,6.5-25.1,9.5l-10.4,45c8.4-2.8,16.8-5.8,25-8.7c8.6-3.2,17-6.4,25.1-9.8l0,0.2c7.8-3.2,15.5-6.5,23.1-9.9
			c8.8-3.9,17.4-8.1,25.7-12.2c5.6-2.8,11.1-5.8,16.6-8.7c9.2-5,18-10,26.4-15.3c7.7-4.8,15.1-9.5,22.2-14.6
			c8.9-6.2,17.4-12.6,25.3-19.2c10.6-8.8,20.4-17.7,29.2-27c10-10.5,18.8-21.4,26.3-32.6c19.9-29.6,30.7-61.2,30.7-94
			C1280,484.4,1279.1,475.3,1277.4,466.3z"/>
	</g>
</g>
<g id="Layer_3" display="none">
	<g display="inline">
		<polygon fill="none" points="2757.9,584.8 2778,584.8 2781.6,584.8 2781.6,566 2781.6,460.8 2781.6,344.8 2781.6,229 
			2781.6,134.2 2781.6,120.1 2757.5,134.1 2734.9,147.3 2712.2,160.4 2687.4,174.8 2669.3,185.3 2644.4,199.8 2619.6,214.3 
			2592.6,230.1 2565.4,245.9 2540.7,260.4 2511.3,277.5 2486.4,291.9 2461.6,306.4 2434.4,322.2 2411.9,335.4 2384.9,351.3 
			2357.7,367 2328.3,384 2296.8,402.4 2269.7,418.3 2238,436.6 2208.6,453.8 2181.6,469.5 2152.2,486.6 2127.4,501.1 2095.8,519.4 
			2066.4,536.6 2037.1,553.8 2003.3,573.8 1984.9,584.8 2001.2,584.8 2031.3,584.8 2057.4,584.8 2083.4,584.8 2111.6,584.8 
			2133.6,584.8 2159.8,584.8 2183.8,584.8 2210,584.8 2238,584.8 2262.1,584.8 2290.3,584.8 2316.3,584.8 2340.4,584.8 
			2364.4,584.8 2384.5,584.8 2408.6,584.8 2430.8,584.8 2452.8,584.8 2478.9,584.8 2501,584.8 2525.1,584.8 2549.1,584.8 
			2571.3,584.8 2593.3,584.8 2609.3,584.8 2631.5,584.8 2651.5,584.8 2671.6,584.8 2695.7,584.8 2713.7,584.8 2735.9,584.8 		"/>
		<polygon fill="#F10102" points="1984.9,584.8 2003.3,573.8 2009.6,540 1977.9,558.8 1967.8,611.8 1995.9,611.8 2001.2,584.8 		"/>
		<polygon fill="#5E4A56" points="1944,578.8 1937.7,611.8 1967.8,611.8 1977.9,558.6 		"/>
		<polygon fill="#003547" points="1910,598.8 1907.6,611.8 1937.7,611.8 1944,578.8 		"/>
		<polygon fill="#DE0611" points="1888.2,611.8 1907.6,611.8 1910,598.8 		"/>
		<polygon fill="#00BAAC" points="2037.1,553.8 2043.5,519.8 2009.6,539.9 2003.3,573.4 		"/>
		<polygon fill="#00BAAC" points="2001.2,584.8 1995.9,611.8 2026,611.8 2031.3,584.8 		"/>
		<polygon fill="#03AA8A" points="2031.3,584.8 2026,611.8 2052.1,611.8 2057.4,584.8 		"/>
		<polygon fill="#03AA8A" points="2066.4,536.6 2072.9,502.4 2043.5,519.8 2037.1,553.8 		"/>
		<polygon fill="#F10102" points="2057.4,584.8 2052.1,611.8 2078.2,611.8 2083.4,584.8 		"/>
		<polygon fill="#F10102" points="2095.8,519.4 2102.4,484.9 2072.9,502.4 2066.4,536.6 		"/>
		<polygon fill="#F10102" points="2238,584.8 2232.7,611.8 2256.9,611.8 2262.1,584.8 		"/>
		<polygon fill="#F10102" points="2296.8,402.4 2303.7,365.9 2276.6,381.9 2269.7,418.3 		"/>
		<polygon fill="#5E4A56" points="2269.7,418.3 2276.6,381.9 2244.9,400.6 2238,436.6 		"/>
		<polygon fill="#5E4A56" points="2210,584.8 2204.7,611.8 2232.7,611.8 2238,584.8 		"/>
		<polygon fill="#003547" points="2238,436.6 2244.9,400.6 2215.5,418 2208.6,453.8 		"/>
		<polygon fill="#003547" points="2183.8,584.8 2178.5,611.8 2204.7,611.8 2210,584.8 		"/>
		<polygon fill="#DE0611" points="2208.6,453.8 2215.5,418 2188.3,434.1 2181.6,469.5 		"/>
		<polygon fill="#DE0611" points="2159.8,584.8 2154.5,611.8 2178.5,611.8 2183.8,584.8 		"/>
		<polygon fill="#FD5B00" points="2181.6,469.5 2188.3,434.1 2159,451.5 2152.2,486.6 		"/>
		<polygon fill="#FD5B00" points="2133.6,584.8 2128.4,611.8 2154.5,611.8 2159.8,584.8 		"/>
		<polygon fill="#98EFE5" points="2111.6,584.8 2106.3,611.8 2128.4,611.8 2133.6,584.8 		"/>
		<polygon fill="#98EFE5" points="2152.2,486.6 2159,451.5 2134.1,466.3 2127.4,501.1 		"/>
		<polygon fill="#FFA800" points="2083.4,584.8 2078.2,611.8 2106.3,611.8 2111.6,584.8 		"/>
		<polygon fill="#FFA800" points="2127.4,501.1 2134.1,466.3 2102.4,484.9 2095.8,519.4 		"/>
		<polygon fill="#00BAAC" points="2328.3,384 2335.4,347 2303.7,365.9 2296.8,402.4 		"/>
		<polygon fill="#00BAAC" points="2262.1,584.8 2256.9,611.8 2285,611.8 2290.3,584.8 		"/>
		<polygon fill="#03AA8A" points="2357.7,367 2364.8,329.6 2335.4,347 2328.3,384 		"/>
		<polygon fill="#03AA8A" points="2290.3,584.8 2285,611.8 2311.1,611.8 2316.3,584.8 		"/>
		<polygon fill="#F10102" points="2316.3,584.8 2311.1,611.8 2335.2,611.8 2340.4,584.8 		"/>
		<polygon fill="#F10102" points="2384.9,351.3 2392,313.6 2364.8,329.6 2357.7,367 		"/>
		<polygon fill="#F10102" points="2478.9,584.8 2473.6,611.8 2495.7,611.8 2501,584.8 		"/>
		<polygon fill="#F10102" points="2565.4,245.9 2573,206.5 2548.1,221.2 2540.7,260.4 		"/>
		<polygon fill="#5E4A56" points="2540.7,260.4 2548.1,221.2 2518.6,238.6 2511.3,277.5 		"/>
		<polygon fill="#5E4A56" points="2452.8,584.8 2447.5,611.8 2473.6,611.8 2478.9,584.8 		"/>
		<polygon fill="#003547" points="2430.8,584.8 2425.5,611.8 2447.5,611.8 2452.8,584.8 		"/>
		<polygon fill="#003547" points="2511.3,277.5 2518.6,238.6 2493.8,253.4 2486.4,291.9 		"/>
		<polygon fill="#DE0611" points="2408.6,584.8 2403.4,611.8 2425.5,611.8 2430.8,584.8 		"/>
		<polygon fill="#DE0611" points="2486.4,291.9 2493.8,253.4 2468.9,268.1 2461.6,306.4 		"/>
		<polygon fill="#FD5B00" points="2461.6,306.4 2468.9,268.1 2441.8,284.1 2434.4,322.2 		"/>
		<polygon fill="#FD5B00" points="2384.5,584.8 2379.2,611.8 2403.4,611.8 2408.6,584.8 		"/>
		<polygon fill="#98EFE5" points="2434.4,322.2 2441.8,284.1 2419.1,297.6 2411.9,335.4 		"/>
		<polygon fill="#98EFE5" points="2364.4,584.8 2359.2,611.8 2379.2,611.8 2384.5,584.8 		"/>
		<polygon fill="#FFA800" points="2411.9,335.4 2419.1,297.6 2392,313.6 2384.9,351.3 		"/>
		<polygon fill="#FFA800" points="2340.4,584.8 2335.2,611.8 2359.2,611.8 2364.4,584.8 		"/>
		<polygon fill="#00BAAC" points="2501,584.8 2495.7,611.8 2519.9,611.8 2525.1,584.8 		"/>
		<polygon fill="#00BAAC" points="2592.6,230.1 2600.1,190.4 2573,206.5 2565.4,245.9 		"/>
		<polygon fill="#03AA8A" points="2525.1,584.8 2519.9,611.8 2543.8,611.8 2549.1,584.8 		"/>
		<polygon fill="#03AA8A" points="2619.6,214.3 2627.3,174.3 2600.1,190.4 2592.6,230.1 		"/>
		<polygon fill="#F10102" points="2549.1,584.8 2543.8,611.8 2566,611.8 2571.3,584.8 		"/>
		<polygon fill="#F10102" points="2644.4,199.8 2652.2,159.6 2627.3,174.3 2619.6,214.3 		"/>
		<polygon fill="#F10102" points="2781.6,229 2809.8,73.8 2809.8,65.5 2791.9,76.5 2781.6,134.2 		"/>
		<polygon fill="#F10102" points="2713.7,584.8 2695.7,584.8 2690.5,611.8 2708.5,611.8 		"/>
		<polygon fill="#5E4A56" points="2781.6,120.1 2781.6,134.2 2792.5,76.5 2765.4,92.7 2757.5,134.1 		"/>
		<polygon fill="#5E4A56" points="2671.6,584.8 2666.4,611.8 2690.5,611.8 2695.7,584.8 		"/>
		<polygon fill="#003547" points="2757.4,134.1 2765.2,92.7 2742.6,106 2734.8,147.3 		"/>
		<polygon fill="#003547" points="2651.5,584.8 2646.3,611.8 2666.4,611.8 2671.6,584.8 		"/>
		<polygon fill="#DE0611" points="2734.8,147.3 2742.6,106 2720,119.4 2712.2,160.4 		"/>
		<polygon fill="#DE0611" points="2631.5,584.8 2626.2,611.8 2646.3,611.8 2651.5,584.8 		"/>
		<polygon fill="#FD5B00" points="2712.2,160.4 2720,119.4 2695.1,134.2 2687.4,174.8 		"/>
		<polygon fill="#FD5B00" points="2609.3,584.8 2604.1,611.8 2626.2,611.8 2631.5,584.8 		"/>
		<polygon fill="#98EFE5" points="2687.4,174.8 2695.1,134.2 2677,144.8 2669.3,185.3 		"/>
		<polygon fill="#98EFE5" points="2593.3,584.8 2588,611.8 2604.1,611.8 2609.3,584.8 		"/>
		<polygon fill="#FFA800" points="2571.3,584.8 2566,611.8 2588,611.8 2593.3,584.8 		"/>
		<polygon fill="#FFA800" points="2669.3,185.3 2677,144.8 2652.2,159.6 2644.4,199.8 		"/>
		<polygon fill="#00BAAC" points="2713.7,584.8 2708.5,611.8 2730.6,611.8 2735.9,584.8 		"/>
		<polygon fill="#00BAAC" points="2781.6,344.8 2809.8,189.6 2809.8,73.8 2781.6,229 		"/>
		<polygon fill="#03AA8A" points="2735.9,584.8 2730.6,611.8 2752.6,611.8 2757.9,584.8 		"/>
		<polygon fill="#03AA8A" points="2781.6,460.8 2809.8,305.5 2809.8,189.6 2781.6,344.8 		"/>
		<polygon fill="#F10102" points="2781.6,566 2809.8,410.8 2809.8,305.5 2781.6,460.8 		"/>
		<polygon fill="#F10102" points="2757.9,584.8 2752.6,611.8 2772.7,611.8 2778,584.8 		"/>
		<polygon fill="#FD5B00" points="2809.8,611.8 2809.8,600.3 2808.8,611.8 		"/>
		<polygon fill="#98EFE5" points="2808.8,611.8 2809.8,600.3 2809.8,526.8 2794.7,611.8 		"/>
		<polygon fill="#FFA800" points="2781.6,584.8 2778,584.8 2772.7,611.8 2794.7,611.8 2809.8,526.8 2809.8,410.8 2781.6,566 		"/>
	</g>
</g>
</svg>
