<?xml version="1.0" encoding="utf-8"?>
<!-- Generator: Adobe Illustrator 17.1.0, SVG Export Plug-In . SVG Version: 6.00 Build 0)  -->
<!DOCTYPE svg PUBLIC "-//W3C//DTD SVG 1.1//EN" "http://www.w3.org/Graphics/SVG/1.1/DTD/svg11.dtd">
<svg version="1.1" id="Layer_1" xmlns="http://www.w3.org/2000/svg" xmlns:xlink="http://www.w3.org/1999/xlink" x="0px" y="0px"
	 viewBox="0 0 1280 639.2" enable-background="new 0 0 1280 639.2" xml:space="preserve">
<g>
	<polygon fill="#F10102" points="3.3,639.2 183.3,639.2 200.2,579.9 3.3,569 	"/>
	<polygon fill="#003547" points="1280,639.2 1086.9,628.3 1083.6,639.2 	"/>
	<polygon fill="#DE0611" points="1083.6,639.2 1086.9,628.3 946.5,620.7 941.6,639.2 	"/>
	<polygon fill="#FD5B00" points="941.6,639.2 946.5,620.7 768.7,610.9 761,639.2 	"/>
	<polygon fill="#98EFE5" points="761,639.2 768.7,610.9 471.1,594.6 458.6,639.2 	"/>
	<polygon fill="#FFA800" points="458.6,639.2 471.1,594.6 200.2,579.9 183.3,639.2 	"/>
</g>
<g>
	<polygon fill="#F10102" points="355.2,19 360.7,0 3.3,0 	"/>
	<polygon fill="#003547" points="1262,0 1120.1,0 938.9,0 924.8,50.6 1103.2,60.4 1243.6,68 1282.2,70.2 1282.2,0 	"/>
	<polygon fill="#98EFE5" points="924.8,50.6 938.9,0 635.9,0 626.7,34.3 	"/>
	<polygon fill="#FFA800" points="626.7,34.3 635.9,0 360.7,0 355.2,19 	"/>
</g>
<g>
	<polygon fill="#F10102" points="1262.6,176.3 1282.2,179 1282.2,0.5 	"/>
	<polygon fill="#003547" points="1282.2,628.3 1282.2,557.6 1282.2,467.3 1230,460.2 1220.2,548.9 1212,619.1 1209.8,638.6 
		1282.2,638.6 	"/>
	<polygon fill="#98EFE5" points="1230,460.2 1282.2,467.3 1282.2,316.1 1246.8,311.7 	"/>
	<polygon fill="#FFA800" points="1246.8,311.7 1282.2,316.1 1282.2,179 1262.6,176.3 	"/>
</g>
<g>
	<polygon fill="#F10102" points="18.5,462.9 -1.1,460.2 -2.2,638.6 	"/>
	<polygon fill="#003547" points="1.6,10.3 1.1,81.6 0.5,171.9 51.1,179 61.5,90.3 69.6,20.1 71.8,1.1 1.6,0.5 	"/>
	<polygon fill="#98EFE5" points="51.1,179 0.5,171.9 0,322.6 34.3,327.5 	"/>
	<polygon fill="#FFA800" points="34.3,327.5 0,322.6 -1.1,460.2 18.5,462.9 	"/>
</g>
</svg>
