<?xml version="1.0" encoding="utf-8"?>
<!-- Generator: Adobe Illustrator 17.1.0, SVG Export Plug-In . SVG Version: 6.00 Build 0)  -->
<!DOCTYPE svg PUBLIC "-//W3C//DTD SVG 1.1//EN" "http://www.w3.org/Graphics/SVG/1.1/DTD/svg11.dtd">
<svg version="1.1" id="Layer_1" xmlns="http://www.w3.org/2000/svg" xmlns:xlink="http://www.w3.org/1999/xlink" x="0px" y="0px"
	 viewBox="0 277.9 1280 522.1" enable-background="new 0 277.9 1280 522.1" xml:space="preserve">
<g id="Layer_5" display="none">
</g>
<g id="Layer_1_copy_5" display="none">
	
		<rect x="1054.5" y="38" transform="matrix(-0.965 -0.2624 0.2624 -0.965 2029.4974 1148.652)" display="inline" fill="#F10102" width="74" height="801.7"/>
	
		<rect x="1337.1" y="108.9" transform="matrix(-0.965 -0.2624 0.2624 -0.965 2523.2546 1356.5566)" display="inline" fill="#F10102" width="30.2" height="801.7"/>
	
		<rect x="1294.2" y="106.4" transform="matrix(-0.965 -0.2624 0.2624 -0.965 2506.2383 1349.2465)" display="inline" fill="#5E4A56" width="98.1" height="801.7"/>
	
		<rect x="1250.2" y="92" transform="matrix(-0.965 -0.2624 0.2624 -0.965 2406.2051 1307.063)" display="inline" fill="#003547" width="80.3" height="801.7"/>
	
		<rect x="1202.6" y="78.3" transform="matrix(-0.965 -0.2624 0.2624 -0.965 2310.2483 1266.8485)" display="inline" fill="#DE0611" width="74.3" height="801.7"/>
	
		<rect x="1183.2" y="72.4" transform="matrix(-0.965 -0.2624 0.2624 -0.965 2269.0359 1249.5107)" display="inline" fill="#FD5B00" width="69.6" height="801.7"/>
	
		<rect x="1149.2" y="58.5" transform="matrix(-0.965 -0.2624 0.2624 -0.965 2208.0598 1224.1703)" display="inline" fill="#98EFE5" width="73.1" height="812.3"/>
	
		<rect x="1122.8" y="53" transform="matrix(-0.965 -0.2624 0.2624 -0.965 2134.5017 1192.7411)" display="inline" fill="#FFA800" width="48.1" height="801.7"/>
	
		<rect x="1351" y="120.8" transform="matrix(-0.965 -0.2624 0.2624 -0.965 2606.5896 1391.4845)" display="inline" fill="#00BAAC" width="90.4" height="801.7"/>
	
		<rect x="1394.1" y="134.2" transform="matrix(-0.965 -0.2624 0.2624 -0.965 2699.7605 1430.5673)" display="inline" fill="#03AA8A" width="102.5" height="801.7"/>
	
		<rect x="1452.8" y="142.1" transform="matrix(-0.965 -0.2624 0.2624 -0.965 2754.2146 1453.6448)" display="inline" fill="#F10102" width="42.7" height="801.7"/>
	
		<rect x="1593.3" y="178" transform="matrix(-0.965 -0.2624 0.2624 -0.965 3004.6216 1558.9557)" display="inline" fill="#F10102" width="26.1" height="801.7"/>
	
		<rect x="1568.1" y="171.3" transform="matrix(-0.965 -0.2624 0.2624 -0.965 2958.7837 1539.4491)" display="inline" fill="#5E4A56" width="28.1" height="801.7"/>
	
		<rect x="1542.9" y="164.3" transform="matrix(-0.965 -0.2624 0.2624 -0.965 2909.0789 1518.7831)" display="inline" fill="#003547" width="26.1" height="801.7"/>
	
		<rect x="1515.7" y="157.2" transform="matrix(-0.965 -0.2624 0.2624 -0.965 2859.4058 1497.9077)" display="inline" fill="#DE0611" width="28.1" height="801.7"/>
	
		<rect x="1494.3" y="151.1" transform="matrix(-0.965 -0.2624 0.2624 -0.965 2817.1838 1480.0665)" display="inline" fill="#FD5B00" width="26.1" height="801.7"/>
	
		<rect x="1461.4" y="142.9" transform="matrix(-0.965 -0.2624 0.2624 -0.965 2760.2144 1456.0348)" display="inline" fill="#98EFE5" width="31.8" height="801.7"/>
	
		<rect x="1452.7" y="142.7" transform="matrix(-0.965 -0.2624 0.2624 -0.965 2759.1177 1455.5044)" display="inline" fill="#FFA800" width="48" height="801.7"/>
	
		<rect x="1618.5" y="185.1" transform="matrix(-0.965 -0.2624 0.2624 -0.965 3054.2495 1579.8044)" display="inline" fill="#00BAAC" width="28.1" height="801.7"/>
	
		<rect x="1645.7" y="192.2" transform="matrix(-0.965 -0.2624 0.2624 -0.965 3103.7397 1600.6029)" display="inline" fill="#03AA8A" width="26.1" height="801.7"/>
	
		<rect x="1671" y="198.8" transform="matrix(-0.965 -0.2624 0.2624 -0.965 3149.792 1619.9771)" display="inline" fill="#F10102" width="24.1" height="801.7"/>
	
		<rect x="1826.2" y="241.1" transform="matrix(-0.965 -0.2624 0.2624 -0.965 3443.7227 1743.7306)" display="inline" fill="#F10102" width="24.1" height="801.7"/>
	
		<rect x="1802.9" y="235" transform="matrix(-0.965 -0.2624 0.2624 -0.965 3401.5007 1725.8895)" display="inline" fill="#5E4A56" width="26.1" height="801.7"/>
	
		<rect x="1781.5" y="228.6" transform="matrix(-0.965 -0.2624 0.2624 -0.965 3357.1836 1707.1228)" display="inline" fill="#003547" width="22.1" height="801.7"/>
	
		<rect x="1756.3" y="222.3" transform="matrix(-0.965 -0.2624 0.2624 -0.965 3313.1812 1688.6476)" display="inline" fill="#DE0611" width="26.1" height="801.7"/>
	
		<rect x="1737" y="216.8" transform="matrix(-0.965 -0.2624 0.2624 -0.965 3274.7129 1672.5223)" display="inline" fill="#FD5B00" width="24.1" height="801.7"/>
	
		<rect x="1717.5" y="210.9" transform="matrix(-0.965 -0.2624 0.2624 -0.965 3234.1489 1655.4716)" display="inline" fill="#98EFE5" width="20.1" height="801.7"/>
	
		<rect x="1694.2" y="205.1" transform="matrix(-0.965 -0.2624 0.2624 -0.965 3193.7942 1638.4521)" display="inline" fill="#FFA800" width="24.1" height="801.7"/>
	
		<rect x="1849.5" y="247.4" transform="matrix(-0.965 -0.2624 0.2624 -0.965 3487.7249 1762.2058)" display="inline" fill="#00BAAC" width="24.1" height="801.7"/>
	
		<rect x="1872.7" y="253.8" transform="matrix(-0.965 -0.2624 0.2624 -0.965 3531.6499 1780.8639)" display="inline" fill="#03AA8A" width="24.1" height="801.7"/>
	
		<rect x="1896" y="259.8" transform="matrix(-0.965 -0.2624 0.2624 -0.965 3573.9487 1798.5225)" display="inline" fill="#F10102" width="22.1" height="801.7"/>
	
		<rect x="2035.7" y="297.5" transform="matrix(-0.965 -0.2624 0.2624 -0.965 3836.634 1909.0812)" display="inline" fill="#F10102" width="20.1" height="801.7"/>
	
		<rect x="2014.3" y="292.1" transform="matrix(-0.965 -0.2624 0.2624 -0.965 3799.9319 1893.354)" display="inline" fill="#5E4A56" width="24.1" height="801.7"/>
	
		<rect x="1995" y="286.3" transform="matrix(-0.965 -0.2624 0.2624 -0.965 3759.5505 1876.3799)" display="inline" fill="#003547" width="20.1" height="801.7"/>
	
		<rect x="1971.7" y="280.6" transform="matrix(-0.965 -0.2624 0.2624 -0.965 3719.1646 1859.5703)" display="inline" fill="#DE0611" width="24.1" height="801.7"/>
	
		<rect x="1954.3" y="275.6" transform="matrix(-0.965 -0.2624 0.2624 -0.965 3684.2717 1844.9197)" display="inline" fill="#FD5B00" width="22.1" height="801.7"/>
	
		<rect x="1938.7" y="270.6" transform="matrix(-0.965 -0.2624 0.2624 -0.965 3649.196 1830.1921)" display="inline" fill="#98EFE5" width="16.1" height="801.7"/>
	
		<rect x="1917.3" y="265.6" transform="matrix(-0.965 -0.2624 0.2624 -0.965 3614.303 1815.5415)" display="inline" fill="#FFA800" width="22.1" height="801.7"/>
	
		<rect x="2055" y="303" transform="matrix(-0.965 -0.2624 0.2624 -0.965 3875.1021 1925.2064)" display="inline" fill="#00BAAC" width="22.1" height="801.7"/>
	
		<rect x="2076.5" y="308.8" transform="matrix(-0.965 -0.2624 0.2624 -0.965 3915.6665 1942.2577)" display="inline" fill="#03AA8A" width="22.1" height="801.7"/>
	
		<rect x="2097.8" y="314.3" transform="matrix(-0.965 -0.2624 0.2624 -0.965 3954.1802 1958.4095)" display="inline" fill="#F10102" width="20.1" height="801.7"/>
	
		<rect x="2229.7" y="350.2" transform="matrix(-0.965 -0.2624 0.2624 -0.965 4204.0024 2063.4282)" display="inline" fill="#F10102" width="20.1" height="801.7"/>
	
		<rect x="2210.3" y="345.2" transform="matrix(-0.965 -0.2624 0.2624 -0.965 4169.1099 2048.7773)" display="inline" fill="#5E4A56" width="22.1" height="801.7"/>
	
		<rect x="2190.9" y="339.8" transform="matrix(-0.965 -0.2624 0.2624 -0.965 4130.5645 2032.835)" display="inline" fill="#003547" width="20.1" height="801.7"/>
	
		<rect x="2169.5" y="334.1" transform="matrix(-0.965 -0.2624 0.2624 -0.965 4091.9451 2016.4233)" display="inline" fill="#DE0611" width="22.1" height="801.7"/>
	
		<rect x="2152" y="329.4" transform="matrix(-0.965 -0.2624 0.2624 -0.965 4058.7551 2002.5895)" display="inline" fill="#FD5B00" width="22.1" height="801.7"/>
	
		<rect x="2138.6" y="324.6" transform="matrix(-0.965 -0.2624 0.2624 -0.965 4025.8064 1988.5778)" display="inline" fill="#98EFE5" width="14.1" height="801.7"/>
	
		<rect x="2117.1" y="319.9" transform="matrix(-0.965 -0.2624 0.2624 -0.965 3992.6165 1974.7441)" display="inline" fill="#FFA800" width="22.1" height="801.7"/>
	
		<rect x="2249.1" y="355.5" transform="matrix(-0.965 -0.2624 0.2624 -0.965 4240.7363 2078.9458)" display="inline" fill="#00BAAC" width="20.1" height="801.7"/>
	
		<rect x="2268.5" y="360.8" transform="matrix(-0.965 -0.2624 0.2624 -0.965 4277.5151 2094.4902)" display="inline" fill="#03AA8A" width="20.1" height="801.7"/>
	
		<rect x="2287.9" y="365.8" transform="matrix(-0.965 -0.2624 0.2624 -0.965 4312.1987 2109.1094)" display="inline" fill="#F10102" width="18.1" height="801.7"/>
	
		<rect x="2414.1" y="400.1" transform="matrix(-0.965 -0.2624 0.2624 -0.965 4551.1772 2209.696)" display="inline" fill="#F10102" width="18.1" height="801.7"/>
	
		<rect x="2394.6" y="395.1" transform="matrix(-0.965 -0.2624 0.2624 -0.965 4516.2842 2195.0452)" display="inline" fill="#5E4A56" width="20.1" height="801.7"/>
	
		<rect x="2377.1" y="390.1" transform="matrix(-0.965 -0.2624 0.2624 -0.965 4481.2085 2180.3176)" display="inline" fill="#003547" width="18.1" height="801.7"/>
	
		<rect x="2355.7" y="384.8" transform="matrix(-0.965 -0.2624 0.2624 -0.965 4444.4751 2164.7998)" display="inline" fill="#DE0611" width="22.1" height="801.7"/>
	
		<rect x="2340.3" y="380.3" transform="matrix(-0.965 -0.2624 0.2624 -0.965 4413.3667 2151.6553)" display="inline" fill="#FD5B00" width="20.1" height="801.7"/>
	
		<rect x="2326.8" y="375.8" transform="matrix(-0.965 -0.2624 0.2624 -0.965 4382.1216 2138.4612)" display="inline" fill="#98EFE5" width="14.1" height="801.7"/>
	
		<rect x="2305.4" y="371.1" transform="matrix(-0.965 -0.2624 0.2624 -0.965 4349.1416 2124.6589)" display="inline" fill="#FFA800" width="22.1" height="801.7"/>
	
		<rect x="2431.4" y="405.1" transform="matrix(-0.965 -0.2624 0.2624 -0.965 4585.8604 2224.3147)" display="inline" fill="#00BAAC" width="20.1" height="801.7"/>
	
		<rect x="2450.9" y="410" transform="matrix(-0.965 -0.2624 0.2624 -0.965 4620.9673 2238.8328)" display="inline" fill="#03AA8A" width="18.1" height="801.7"/>
	
		<rect x="2468.3" y="414.6" transform="matrix(-0.965 -0.2624 0.2624 -0.965 4651.998 2252.1602)" display="inline" fill="#F10102" width="16.1" height="801.7"/>
	
		<rect x="2577" y="444.1" transform="matrix(-0.965 -0.2624 0.2624 -0.965 4857.8188 2338.7034)" display="inline" fill="#F10102" width="16.1" height="801.7"/>
	
		<rect x="2561.5" y="439.9" transform="matrix(-0.965 -0.2624 0.2624 -0.965 4828.4912 2326.1934)" display="inline" fill="#5E4A56" width="16.1" height="801.7"/>
	
		<rect x="2546" y="435.8" transform="matrix(-0.965 -0.2624 0.2624 -0.965 4799.0552 2314.0754)" display="inline" fill="#003547" width="16.1" height="801.7"/>
	
		<rect x="2526.6" y="431" transform="matrix(-0.965 -0.2624 0.2624 -0.965 4766.1069 2300.064)" display="inline" fill="#DE0611" width="20.1" height="801.7"/>
	
		<rect x="2513" y="426.8" transform="matrix(-0.965 -0.2624 0.2624 -0.965 4736.7021 2287.7366)" display="inline" fill="#FD5B00" width="16.1" height="801.7"/>
	
		<rect x="2501.4" y="423" transform="matrix(-0.965 -0.2624 0.2624 -0.965 4710.9448 2276.865)" display="inline" fill="#98EFE5" width="12.1" height="801.7"/>
	
		<rect x="2483.8" y="419.1" transform="matrix(-0.965 -0.2624 0.2624 -0.965 4683.2441 2265.3547)" display="inline" fill="#FFA800" width="18.1" height="801.7"/>
	
		<rect x="2592.5" y="448.4" transform="matrix(-0.965 -0.2624 0.2624 -0.965 4887.1968 2351.0759)" display="inline" fill="#00BAAC" width="16.1" height="801.7"/>
	
		<rect x="2608" y="452.6" transform="matrix(-0.965 -0.2624 0.2624 -0.965 4916.6011 2363.4038)" display="inline" fill="#03AA8A" width="16.1" height="801.7"/>
</g>
<g id="Layer_1_copy_6">
</g>
<g id="Layer_1_copy">
	<g>
		<path fill="none" d="M1208.6,474.1c-5.2-6.3-11.2-12.5-17.9-18.6c-3.7-3.4-7.7-6.8-11.8-10.1c-6-4.7-12.3-9.4-19.1-13.9
			c-5.7-3.8-11.6-7.5-17.8-11.2c-6.4-3.7-13-7.4-19.9-11c-6.5-3.4-13.3-6.7-20.2-9.9c-5.4-2.5-11-5-16.7-7.4
			c-7.3-3.1-14.8-6.1-22.5-9c-6.2-2.3-12.5-4.6-19-6.9c-6.2-2.2-12.6-4.3-19.1-6.4c-6.9-2.2-14-4.3-21.2-6.4
			c-5.1-1.5-10.3-2.9-15.5-4.3c-7-1.9-14.2-3.8-21.4-5.5c-7.1-1.7-14.3-3.4-21.5-5.1c-7.8-1.7-15.6-3.4-23.6-5
			c-7.8-1.6-15.7-3.1-23.8-4.5c-7.2-1.3-14.5-2.6-21.9-3.7c-8.6-1.4-17.2-2.7-26-3.9c-7.3-1-14.7-2-22.1-2.9
			c-7.3-0.9-14.7-1.8-22.2-2.6c-8-0.9-16.2-1.7-24.3-2.4c-6.7-0.6-13.5-1.2-20.4-1.7c-8.1-0.6-16.3-1.2-24.5-1.7
			c-8.2-0.5-16.4-0.9-24.6-1.3c-8.9-0.4-17.8-0.7-26.8-1c-9.6-0.3-19.3-0.4-29-0.5c-4.8,0-9.6-0.1-14.5-0.1c-3.5,0-7,0-10.5,0
			c-9.8,0.1-19.6,0.2-29.3,0.5c-9.2,0.2-18.3,0.5-27.3,0.9c-8.5,0.4-17,0.8-25.3,1.3c-7.4,0.4-14.7,0.9-22,1.5
			c-17.3,1.3-34.3,2.8-51,4.6c-22,2.4-43.4,5.3-64.3,8.6c-16.7,2.6-32.9,5.5-48.8,8.7c-9.1,1.8-18,3.7-26.8,5.7
			c-21.6,4.9-42.3,10.3-62,16.1c-9.6,2.8-19,5.8-28.1,8.9c-12.6,4.2-24.8,8.7-36.4,13.3c-23,9.2-44.1,19.1-62.8,29.6
			c-25.2,14.2-46.1,29.5-62.3,45.7C59.5,487.1,46,513.7,46,541.3c0,11.7,2.4,23.2,7,34.4c7.1,17.3,19.4,33.9,36.3,49.7
			c12.7,11.8,27.9,23.1,45.5,33.8c8.9,5.4,18.4,10.7,28.5,15.8c7.3,3.7,14.9,7.3,22.7,10.8c16.2,7.2,33.6,14.1,52,20.5
			c7.6,2.6,15.3,5.2,23.2,7.6c13.8,4.3,28.2,8.4,43.1,12.3c18.7,4.8,38.2,9.3,58.3,13.3c15.4,3.1,31.3,5.9,47.5,8.5
			c6.9,1.1,13.8,2.1,20.8,3.1c8,1.1,16,2.2,24.1,3.2c8.7,1.1,17.4,2.1,26.3,3c9.4,1,18.9,1.9,28.4,2.7c8.1,0.7,16.3,1.3,24.5,1.9
			c9.5,0.6,19.1,1.2,28.7,1.7c8.9,0.4,17.8,0.8,26.8,1.1c8.2,0.3,16.5,0.5,24.8,0.6c8.3,0.1,16.6,0.2,24.9,0.2c0.4,0,0.8,0,1.2,0
			c6.6,0,13.1,0,19.7-0.1c8.4-0.1,16.8-0.3,25.1-0.5c7.8-0.2,15.5-0.5,23.1-0.8c7.8-0.3,15.5-0.7,23.2-1.2
			c9.3-0.5,18.5-1.2,27.6-1.9c7.9-0.6,15.7-1.3,23.5-2c8.6-0.8,17.2-1.7,25.7-2.6c8.7-1,17.3-2,25.8-3.1c8-1,16-2.1,23.8-3.3
			c8.1-1.2,16.1-2.5,23.9-3.8c5.9-1,11.7-2,17.5-3.1c8.2-1.5,16.2-3.1,24.2-4.7c7.5-1.5,14.9-3.1,22.1-4.8c7.5-1.7,15-3.5,22.3-5.3
			c9.2-2.3,18.1-4.7,26.9-7.1c6.9-1.9,13.7-3.9,20.4-6c8.6-2.6,17-5.3,25.1-8.1c8.7-3,17.2-6.1,25.4-9.3c8.1-3.1,15.9-6.3,23.4-9.6
			c9.1-4,17.9-8,26.2-12.2c5.9-2.9,11.5-5.9,17-9c9.8-5.4,19-11,27.5-16.8s16.4-11.7,23.6-17.7c11.5-9.7,21.2-19.8,29-30.1
			c14.6-19.5,22.4-40,22.4-61.2c0-5.3-0.5-10.6-1.5-15.9c-2-10.9-6.1-21.6-12.1-32C1218.3,486.8,1213.8,480.4,1208.6,474.1z"/>
		<path fill="#00BAAC" d="M611.8,278.2c-9.1,0.2-18.2,0.4-27.3,0.7c-8.5,0.3-16.9,0.7-25.3,1.1c-7.4,0.4-14.7,0.8-22,1.3
			c-17.2,1.1-34.2,2.6-50.9,4.3c-21.8,2.2-43.2,4.9-64.1,8l-11.1,40.9c20.9-3.3,42.3-6.2,64.3-8.6c16.7-1.8,33.7-3.4,51-4.6
			c7.3-0.5,14.6-1,22-1.5c8.4-0.5,16.8-0.9,25.3-1.3c9.1-0.4,18.2-0.7,27.3-0.9c9.7-0.2,19.5-0.4,29.3-0.5l10.8-39.2
			C631.3,277.9,621.5,278,611.8,278.2z"/>
		<path fill="#003547" d="M534.5,761.9L534.5,761.9c-8.2-0.6-16.4-1.2-24.5-1.9l0,0c-9.6-0.8-19-1.7-28.4-2.7h-0.1
			c-8.8-0.9-17.5-1.9-26.2-3v0.1c-8.1-1-16.2-2.1-24.1-3.2c-7-1.1-13.9-2.1-20.8-3.2c-16.2-2.6-32-5.4-47.5-8.5
			c-20.2-4-39.6-8.5-58.3-13.3c-14.9-3.8-29.2-7.9-43.1-12.3c-7.9-2.5-15.6-5-23.2-7.6c-18.5-6.4-35.8-13.2-52-20.5
			c-7.9-3.5-15.4-7.1-22.7-10.8c-10.1-5.1-19.6-10.4-28.5-15.8c-17.6-10.7-32.8-22-45.5-33.8c-16.9-15.8-29.3-32.4-36.3-49.7
			c-4.6-11.2-7-22.7-7-34.4c0-27.7,13.4-54.3,37.8-78.8c16-16.2,37-31.5,62.2-45.7c18.7-10.5,39.7-20.4,62.8-29.6
			c11.6-4.6,23.8-9.1,36.4-13.3c9.1-3.1,18.5-6,28.1-8.9c19.7-5.8,40.4-11.2,62-16.1c8.8-2,17.7-3.9,26.8-5.7
			c15.9-3.2,32.1-6.1,48.8-8.7l11.1-40.9c-16.5,2.5-32.8,5.2-48.6,8.2c-9,1.7-17.9,3.5-26.7,5.3c-21.3,4.5-41.8,9.5-61.6,14.9
			c-9.5,2.6-18.8,5.3-27.9,8.1c-12.5,3.7-24.5,7.7-36.2,11.8c-21.9,7.8-42.4,16.1-61.5,25c-21.4,9.9-41,20.6-58.5,31.8
			C37.9,439.2,1.1,487.3,1.1,539c0,31.2,13.4,61,37.9,88.8c11.1,12.5,24.5,24.6,40,36.2c13.9,10.4,29.5,20.3,46.6,29.8
			c9.2,5.1,18.8,10,28.8,14.8c7.4,3.5,15,7,22.9,10.3c16.5,7.1,33.9,13.7,52.1,20c7.6,2.6,15.3,5.1,23.2,7.6
			c13.9,4.3,28.3,8.5,43.1,12.3c18.8,4.9,38.2,9.4,58.3,13.6c15.4,3.2,31.3,6.1,47.4,8.8c6.8,1.1,13.8,2.2,20.7,3.2
			c8,1.2,16,2.3,24.1,3.4v-0.1c8.7,1.1,17.4,2.2,26.2,3.2l0,0c9.4,1,18.8,2,28.4,2.9c8.1,0.7,16.2,1.4,24.4,2h0.1
			c9.5,0.7,19,1.3,28.7,1.9l9.3-34.1C553.5,763.1,544,762.5,534.5,761.9z"/>
		<path fill="#03AA8A" d="M931.3,306.2c-7.8-1.6-15.7-3.2-23.7-4.7c-7.2-1.3-14.5-2.6-21.9-3.9c-8.6-1.4-17.2-2.8-26-4.1
			c-7.3-1.1-14.7-2.1-22.1-3.1c-7.3-1-14.7-1.9-22.2-2.7c-8-0.9-16.1-1.8-24.3-2.6c-6.7-0.7-13.5-1.3-20.3-1.9
			c-8.1-0.7-16.3-1.3-24.5-1.9c-8.1-0.6-16.4-1-24.6-1.5c-8.8-0.3-17.7-0.7-26.7-1c-9.6-0.3-19.3-0.6-29-0.7l0,0
			c-8.3-0.1-16.6-0.2-24.9-0.2l0,0l-10.7,39.2c3.5,0,7-0.1,10.5-0.1c4.8,0,9.7,0,14.5,0.1c9.7,0.1,19.4,0.3,29,0.5
			c9,0.2,17.9,0.6,26.8,1c8.3,0.4,16.5,0.8,24.6,1.3c8.2,0.5,16.4,1.1,24.5,1.7c6.8,0.5,13.6,1.1,20.4,1.7
			c8.2,0.7,16.3,1.6,24.3,2.4c7.5,0.8,14.9,1.7,22.2,2.6c7.4,0.9,14.8,1.9,22.1,2.9c8.8,1.2,17.4,2.6,26,3.9
			c7.4,1.2,14.7,2.4,21.9,3.7c8,1.4,15.9,3,23.8,4.5c8,1.6,15.9,3.3,23.6,5l10.1-37.1C947.1,309.6,939.3,307.9,931.3,306.2z"/>
		<path fill="#00BAAC" d="M995.5,721.3c-8.8,2.5-17.8,4.8-26.9,7.1c-7.3,1.8-14.7,3.6-22.3,5.3c-7.3,1.6-14.7,3.2-22.1,4.8
			c-8,1.6-16,3.2-24.2,4.7c-5.8,1.1-11.6,2.1-17.5,3.1c-7.9,1.3-15.9,2.6-23.9,3.8c-7.9,1.2-15.8,2.3-23.8,3.3
			c-8.5,1.1-17.1,2.1-25.8,3.1c-8.5,0.9-17.1,1.8-25.7,2.6c-7.8,0.7-15.6,1.4-23.5,2c-9.1,0.7-18.3,1.3-27.6,1.9
			c-7.7,0.4-15.4,0.8-23.2,1.2c-7.7,0.3-15.4,0.6-23.1,0.8c-8.3,0.2-16.7,0.4-25.1,0.5c-6.5,0.1-13.1,0.1-19.7,0.1
			c-0.4,0-0.8,0-1.2,0c-8.4,0-16.7-0.1-24.9-0.2c-8.3-0.1-16.6-0.3-24.8-0.6c-9-0.3-17.9-0.7-26.8-1.1l-9.3,34.1
			c8.9,0.5,17.8,0.9,26.7,1.3c8.2,0.3,16.5,0.6,24.8,0.8s16.6,0.3,24.9,0.4c3.6,0,7.1,0,10.7,0c3.4,0,6.7,0,10.1,0
			c8.4-0.1,16.8-0.2,25.1-0.4c7.7-0.2,15.4-0.4,23.1-0.7c7.8-0.3,15.5-0.6,23.2-1c9.2-0.5,18.4-1,27.5-1.7
			c7.9-0.5,15.7-1.2,23.4-1.8c8.6-0.7,17.2-1.5,25.7-2.4c8.7-0.9,17.3-1.9,25.8-2.9c8-1,15.9-2,23.8-3.1c8-1.1,16-2.3,23.9-3.6
			c5.9-0.9,11.7-1.9,17.5-2.9c8.1-1.4,16.2-2.9,24.1-4.4c7.4-1.4,14.8-2.9,22-4.5c7.5-1.6,14.9-3.2,22.2-4.9
			c9.1-2.1,18-4.3,26.8-6.6c6.8-1.8,13.6-3.6,20.2-5.5l10.4-38.4C1009.2,717.3,1002.4,719.3,995.5,721.3z"/>
		<path fill="#DE0611" d="M1053.6,339.3c-6.3-2.2-12.6-4.3-19.1-6.3c-6.9-2.2-14-4.4-21.2-6.5c-5.1-1.5-10.3-3-15.5-4.4
			c-7-1.9-14.2-3.8-21.4-5.6c-7.1-1.8-14.3-3.5-21.5-5.2l-10,37.1c7.3,1.6,14.5,3.3,21.5,5.1c7.2,1.8,14.4,3.6,21.4,5.5
			c5.2,1.4,10.4,2.9,15.5,4.3c7.2,2.1,14.2,4.2,21.2,6.4c6.5,2.1,12.9,4.2,19.1,6.4c6.5,2.2,12.8,4.5,19,6.9l10.1-37
			C1066.3,343.8,1060,341.6,1053.6,339.3z"/>
		<path fill="#FFA800" d="M1278.6,515.6c-2.2-10.1-5.8-19.9-10.7-29.6c-4.3-8.6-9.7-17-16.1-25.2c-4.8-6.2-10.1-12.3-15.9-18.2
			c-4.6-4.8-9.6-9.5-14.9-14.1c-5.9-5.1-12.2-10.2-18.8-15.1c-3.9-2.9-8-5.8-12.2-8.7c-6.2-4.2-12.7-8.4-19.5-12.4
			c-5.8-3.5-11.8-6.9-18-10.3c-6.5-3.5-13.2-7-20.1-10.3c-6.6-3.2-13.4-6.4-20.3-9.5c-5.5-2.4-11.1-4.8-16.8-7.2
			c-7.4-3-14.9-6-22.6-8.8l-10.1,37c7.7,2.9,15.3,5.9,22.5,9c5.7,2.4,11.3,4.9,16.7,7.4c7,3.2,13.7,6.5,20.2,9.9
			c6.9,3.6,13.6,7.2,19.9,11c6.2,3.7,12.1,7.4,17.8,11.2c6.8,4.6,13.2,9.2,19.1,13.9c4.2,3.3,8.1,6.7,11.8,10.1
			c6.7,6.1,12.6,12.2,17.9,18.6c5.2,6.3,9.8,12.7,13.5,19.2c6,10.4,10.1,21.1,12.1,32c1,5.2,1.5,10.5,1.5,15.9
			c0,21.2-7.8,41.8-22.4,61.2c-7.8,10.4-17.5,20.4-29,30.1c-7.2,6.1-15,12-23.6,17.7c-8.5,5.8-17.7,11.3-27.5,16.8
			c-5.5,3-11.2,6-17,9c-8.4,4.2-17.1,8.3-26.2,12.2c-7.6,3.3-15.4,6.5-23.4,9.6v-0.1c-8.3,3.2-16.7,6.3-25.5,9.2v0.1
			c-8.1,2.7-16.5,5.5-25,8.1l-10.4,38.4c8.5-2.4,16.8-4.9,24.9-7.4v-0.1c8.6-2.7,17-5.5,25.1-8.3v0.1c7.9-2.7,15.6-5.5,23.1-8.4
			c8.8-3.4,17.4-6.8,25.7-10.4c5.6-2.4,11.2-4.9,16.6-7.4c9.2-4.2,18-8.6,26.5-13.1c7.7-4,15-8.2,22.1-12.4
			c8.9-5.3,17.3-10.8,25.3-16.3c10.6-7.5,20.4-15.2,29.2-23.1c10-9,18.8-18.3,26.3-27.8c19.9-25.2,30.7-52.2,30.7-80.1
			C1281.1,531.1,1280.2,523.3,1278.6,515.6z"/>
	</g>
</g>
<g id="Layer_3" display="none">
	<g display="inline">
		<polygon fill="none" points="2254.6,618 2271.1,618 2274,618 2274,602.6 2274,516.6 2274,421.9 2274,327.3 2274,249.8 2274,238.2 
			2254.3,249.7 2235.8,260.4 2217.3,271.2 2197,283 2182.2,291.6 2161.9,303.4 2141.6,315.2 2119.5,328.1 2097.3,341 2077,352.9 
			2053.1,366.8 2032.8,378.7 2012.5,390.5 1990.3,403.4 1971.9,414.1 1949.7,427 1927.6,439.9 1903.6,453.9 1877.8,468.9 
			1855.7,481.8 1829.8,496.9 1805.8,510.9 1783.7,523.8 1759.7,537.7 1739.4,549.6 1713.6,564.6 1689.6,578.6 1665.6,592.6 
			1638,609 1622.9,618 1636.3,618 1660.9,618 1682.2,618 1703.5,618 1726.5,618 1744.5,618 1765.8,618 1785.5,618 1806.9,618 
			1829.8,618 1849.5,618 1872.5,618 1893.8,618 1913.5,618 1933.1,618 1949.5,618 1969.2,618 1987.3,618 2005.3,618 2026.6,618 
			2044.7,618 2064.3,618 2084,618 2102.1,618 2120.1,618 2133.2,618 2151.3,618 2167.7,618 2184.1,618 2203.7,618 2218.5,618 
			2236.6,618 		"/>
		<polygon fill="#F10102" points="1622.9,618 1638,609 1643.2,581.4 1617.3,596.7 1609,640 1632,640 1636.3,618 		"/>
		<polygon fill="#5E4A56" points="1589.6,613 1584.4,640 1609,640 1617.3,596.6 		"/>
		<polygon fill="#003547" points="1561.8,629.4 1559.8,640 1584.4,640 1589.6,613 		"/>
		<polygon fill="#DE0611" points="1544,640 1559.8,640 1561.8,629.4 		"/>
		<polygon fill="#00BAAC" points="1665.6,592.6 1670.9,564.9 1643.2,581.3 1638,608.7 		"/>
		<polygon fill="#00BAAC" points="1636.3,618 1632,640 1656.6,640 1660.9,618 		"/>
		<polygon fill="#03AA8A" points="1660.9,618 1656.6,640 1677.9,640 1682.2,618 		"/>
		<polygon fill="#03AA8A" points="1689.6,578.6 1694.9,550.6 1670.9,564.9 1665.6,592.6 		"/>
		<polygon fill="#F10102" points="1682.2,618 1677.9,640 1699.2,640 1703.5,618 		"/>
		<polygon fill="#F10102" points="1713.6,564.6 1719,536.4 1694.9,550.6 1689.6,578.6 		"/>
		<polygon fill="#F10102" points="1829.8,618 1825.5,640 1845.2,640 1849.5,618 		"/>
		<polygon fill="#F10102" points="1877.8,468.9 1883.5,439 1861.3,452.2 1855.7,481.8 		"/>
		<polygon fill="#5E4A56" points="1855.7,481.8 1861.3,452.2 1835.4,467.5 1829.8,496.9 		"/>
		<polygon fill="#5E4A56" points="1806.9,618 1802.6,640 1825.5,640 1829.8,618 		"/>
		<polygon fill="#003547" points="1829.8,496.9 1835.4,467.5 1811.4,481.7 1805.8,510.9 		"/>
		<polygon fill="#003547" points="1785.5,618 1781.2,640 1802.6,640 1806.9,618 		"/>
		<polygon fill="#DE0611" points="1805.8,510.9 1811.4,481.7 1789.2,494.8 1783.7,523.8 		"/>
		<polygon fill="#DE0611" points="1765.8,618 1761.6,640 1781.2,640 1785.5,618 		"/>
		<polygon fill="#FD5B00" points="1783.7,523.8 1789.2,494.8 1765.2,509.1 1759.7,537.7 		"/>
		<polygon fill="#FD5B00" points="1744.5,618 1740.2,640 1761.6,640 1765.8,618 		"/>
		<polygon fill="#98EFE5" points="1726.5,618 1722.2,640 1740.2,640 1744.5,618 		"/>
		<polygon fill="#98EFE5" points="1759.7,537.7 1765.2,509.1 1744.8,521.1 1739.4,549.6 		"/>
		<polygon fill="#FFA800" points="1703.5,618 1699.2,640 1722.2,640 1726.5,618 		"/>
		<polygon fill="#FFA800" points="1739.4,549.6 1744.8,521.1 1719,536.4 1713.6,564.6 		"/>
		<polygon fill="#00BAAC" points="1903.6,453.9 1909.4,423.7 1883.5,439 1877.8,468.9 		"/>
		<polygon fill="#00BAAC" points="1849.5,618 1845.2,640 1868.2,640 1872.5,618 		"/>
		<polygon fill="#03AA8A" points="1927.6,439.9 1933.4,409.5 1909.4,423.7 1903.6,453.9 		"/>
		<polygon fill="#03AA8A" points="1872.5,618 1868.2,640 1889.5,640 1893.8,618 		"/>
		<polygon fill="#F10102" points="1893.8,618 1889.5,640 1909.2,640 1913.5,618 		"/>
		<polygon fill="#F10102" points="1949.7,427 1955.6,396.4 1933.4,409.5 1927.6,439.9 		"/>
		<polygon fill="#F10102" points="2026.6,618 2022.3,640 2040.4,640 2044.7,618 		"/>
		<polygon fill="#F10102" points="2097.3,341 2103.5,308.8 2083.1,320.9 2077,352.9 		"/>
		<polygon fill="#5E4A56" points="2077,352.9 2083.1,320.9 2059.1,335.1 2053.1,366.8 		"/>
		<polygon fill="#5E4A56" points="2005.3,618 2001,640 2022.3,640 2026.6,618 		"/>
		<polygon fill="#003547" points="1987.3,618 1983,640 2001,640 2005.3,618 		"/>
		<polygon fill="#003547" points="2053.1,366.8 2059.1,335.1 2038.8,347.1 2032.8,378.7 		"/>
		<polygon fill="#DE0611" points="1969.2,618 1964.9,640 1983,640 1987.3,618 		"/>
		<polygon fill="#DE0611" points="2032.8,378.7 2038.8,347.1 2018.4,359.2 2012.5,390.5 		"/>
		<polygon fill="#FD5B00" points="2012.5,390.5 2018.4,359.2 1996.3,372.3 1990.3,403.4 		"/>
		<polygon fill="#FD5B00" points="1949.5,618 1945.2,640 1964.9,640 1969.2,618 		"/>
		<polygon fill="#98EFE5" points="1990.3,403.4 1996.3,372.3 1977.8,383.2 1971.9,414.1 		"/>
		<polygon fill="#98EFE5" points="1933.1,618 1928.8,640 1945.2,640 1949.5,618 		"/>
		<polygon fill="#FFA800" points="1971.9,414.1 1977.8,383.2 1955.6,396.4 1949.7,427 		"/>
		<polygon fill="#FFA800" points="1913.5,618 1909.2,640 1928.8,640 1933.1,618 		"/>
		<polygon fill="#00BAAC" points="2044.7,618 2040.4,640 2060,640 2064.3,618 		"/>
		<polygon fill="#00BAAC" points="2119.5,328.1 2125.7,295.7 2103.5,308.8 2097.3,341 		"/>
		<polygon fill="#03AA8A" points="2064.3,618 2060,640 2079.7,640 2084,618 		"/>
		<polygon fill="#03AA8A" points="2141.6,315.2 2147.8,282.6 2125.7,295.7 2119.5,328.1 		"/>
		<polygon fill="#F10102" points="2084,618 2079.7,640 2097.8,640 2102.1,618 		"/>
		<polygon fill="#F10102" points="2161.9,303.4 2168.2,270.5 2147.8,282.6 2141.6,315.2 		"/>
		<polygon fill="#F10102" points="2274,327.3 2297,200.5 2297,193.7 2282.4,202.7 2274,249.8 		"/>
		<polygon fill="#F10102" points="2218.5,618 2203.7,618 2199.5,640 2214.2,640 		"/>
		<polygon fill="#5E4A56" points="2274,238.2 2274,249.8 2282.9,202.7 2260.7,215.8 2254.3,249.7 		"/>
		<polygon fill="#5E4A56" points="2184.1,618 2179.8,640 2199.5,640 2203.7,618 		"/>
		<polygon fill="#003547" points="2254.2,249.7 2260.6,215.8 2242.1,226.8 2235.7,260.4 		"/>
		<polygon fill="#003547" points="2167.7,618 2163.4,640 2179.8,640 2184.1,618 		"/>
		<polygon fill="#DE0611" points="2235.7,260.4 2242.1,226.8 2223.6,237.7 2217.3,271.2 		"/>
		<polygon fill="#DE0611" points="2151.3,618 2147,640 2163.4,640 2167.7,618 		"/>
		<polygon fill="#FD5B00" points="2217.3,271.2 2223.6,237.7 2203.3,249.7 2197,283 		"/>
		<polygon fill="#FD5B00" points="2133.2,618 2128.9,640 2147,640 2151.3,618 		"/>
		<polygon fill="#98EFE5" points="2197,283 2203.3,249.7 2188.5,258.5 2182.2,291.6 		"/>
		<polygon fill="#98EFE5" points="2120.1,618 2115.8,640 2128.9,640 2133.2,618 		"/>
		<polygon fill="#FFA800" points="2102.1,618 2097.8,640 2115.8,640 2120.1,618 		"/>
		<polygon fill="#FFA800" points="2182.2,291.6 2188.5,258.5 2168.2,270.5 2161.9,303.4 		"/>
		<polygon fill="#00BAAC" points="2218.5,618 2214.2,640 2232.3,640 2236.6,618 		"/>
		<polygon fill="#00BAAC" points="2274,421.9 2297,295.1 2297,200.5 2274,327.3 		"/>
		<polygon fill="#03AA8A" points="2236.6,618 2232.3,640 2250.3,640 2254.6,618 		"/>
		<polygon fill="#03AA8A" points="2274,516.6 2297,389.8 2297,295.1 2274,421.9 		"/>
		<polygon fill="#F10102" points="2274,602.6 2297,475.8 2297,389.8 2274,516.6 		"/>
		<polygon fill="#F10102" points="2254.6,618 2250.3,640 2266.7,640 2271.1,618 		"/>
		<polygon fill="#FD5B00" points="2297,640 2297,630.7 2296.2,640 		"/>
		<polygon fill="#98EFE5" points="2296.2,640 2297,630.7 2297,570.5 2284.7,640 		"/>
		<polygon fill="#FFA800" points="2274,618 2271.1,618 2266.7,640 2284.7,640 2297,570.5 2297,475.8 2274,602.6 		"/>
	</g>
</g>
</svg>
